<svg xmlns="http://www.w3.org/2000/svg" xmlns:xlink="http://www.w3.org/1999/xlink" width="250" zoomAndPan="magnify" viewBox="0 0 375 374.999991" height="250" preserveAspectRatio="xMidYMid meet" version="1.0"><defs><g/><clipPath id="32bab6b815"><path d="M 140 144 L 255.695312 144 L 255.695312 190.4375 L 140 190.4375 Z M 140 144 " clip-rule="nonzero"/></clipPath><clipPath id="ce3efe2a12"><path d="M 119.195312 144 L 235 144 L 235 190.4375 L 119.195312 190.4375 Z M 119.195312 144 " clip-rule="nonzero"/></clipPath><clipPath id="7d4f16c895"><path d="M 161 52.4375 L 213 52.4375 L 213 154 L 161 154 Z M 161 52.4375 " clip-rule="nonzero"/></clipPath><clipPath id="132ae742ef"><path d="M 163 52.4375 L 214 52.4375 L 214 151 L 163 151 Z M 163 52.4375 " clip-rule="nonzero"/></clipPath></defs><rect x="-37.5" width="450" fill="#ffffff" y="-37.499999" height="449.999989" fill-opacity="1"/><rect x="-37.5" width="450" fill="#ffffff" y="-37.499999" height="449.999989" fill-opacity="1"/><rect x="-37.5" width="450" fill="#483a58" y="-37.499999" height="449.999989" fill-opacity="1"/><path fill="#eee0d8" d="M 187.394531 109.808594 C 186.691406 109.808594 185.996094 109.742188 185.304688 109.601562 C 184.613281 109.464844 183.945312 109.261719 183.296875 108.992188 C 182.644531 108.722656 182.027344 108.390625 181.441406 108 C 180.859375 107.609375 180.316406 107.164062 179.820312 106.664062 C 179.320312 106.167969 178.878906 105.625 178.488281 105.039062 C 178.097656 104.453125 177.765625 103.832031 177.496094 103.183594 C 177.226562 102.53125 177.023438 101.859375 176.886719 101.167969 C 176.75 100.476562 176.679688 99.777344 176.679688 99.074219 C 176.679688 98.367188 176.75 97.671875 176.886719 96.980469 C 177.023438 96.289062 177.226562 95.617188 177.496094 94.964844 C 177.765625 94.3125 178.097656 93.695312 178.488281 93.109375 C 178.878906 92.523438 179.320312 91.980469 179.820312 91.480469 C 180.316406 90.984375 180.859375 90.539062 181.441406 90.148438 C 182.027344 89.753906 182.644531 89.425781 183.296875 89.15625 C 183.945312 88.886719 184.613281 88.679688 185.304688 88.542969 C 185.996094 88.40625 186.691406 88.335938 187.394531 88.335938 C 188.097656 88.335938 188.796875 88.40625 189.484375 88.542969 C 190.175781 88.679688 190.84375 88.886719 191.496094 89.15625 C 192.144531 89.425781 192.761719 89.753906 193.347656 90.148438 C 193.933594 90.539062 194.472656 90.984375 194.96875 91.480469 C 195.46875 91.980469 195.910156 92.523438 196.300781 93.109375 C 196.695312 93.695312 197.023438 94.3125 197.292969 94.964844 C 197.5625 95.617188 197.765625 96.289062 197.902344 96.980469 C 198.039062 97.671875 198.109375 98.367188 198.109375 99.074219 C 198.105469 99.777344 198.039062 100.476562 197.898438 101.167969 C 197.761719 101.859375 197.558594 102.527344 197.289062 103.179688 C 197.019531 103.832031 196.691406 104.449219 196.296875 105.035156 C 195.90625 105.621094 195.464844 106.164062 194.964844 106.660156 C 194.46875 107.160156 193.929688 107.605469 193.34375 107.996094 C 192.757812 108.386719 192.140625 108.71875 191.492188 108.988281 C 190.84375 109.257812 190.171875 109.464844 189.484375 109.601562 C 188.792969 109.738281 188.097656 109.808594 187.394531 109.808594 Z M 187.394531 90.125 C 186.808594 90.125 186.230469 90.183594 185.65625 90.296875 C 185.082031 90.410156 184.523438 90.582031 183.980469 90.804688 C 183.441406 91.027344 182.925781 91.304688 182.441406 91.628906 C 181.953125 91.957031 181.503906 92.328125 181.089844 92.742188 C 180.675781 93.15625 180.304688 93.609375 179.980469 94.097656 C 179.65625 94.582031 179.378906 95.097656 179.15625 95.640625 C 178.933594 96.183594 178.761719 96.742188 178.648438 97.316406 C 178.535156 97.894531 178.476562 98.472656 178.476562 99.0625 C 178.476562 99.648438 178.535156 100.230469 178.648438 100.804688 C 178.761719 101.378906 178.933594 101.9375 179.15625 102.480469 C 179.378906 103.023438 179.65625 103.539062 179.980469 104.023438 C 180.304688 104.511719 180.675781 104.964844 181.089844 105.378906 C 181.503906 105.792969 181.953125 106.164062 182.441406 106.492188 C 182.925781 106.816406 183.441406 107.09375 183.980469 107.316406 C 184.523438 107.542969 185.082031 107.710938 185.65625 107.824219 C 186.230469 107.941406 186.808594 107.996094 187.394531 107.996094 C 187.980469 107.996094 188.558594 107.941406 189.132812 107.824219 C 189.707031 107.710938 190.265625 107.542969 190.808594 107.316406 C 191.347656 107.09375 191.863281 106.816406 192.347656 106.492188 C 192.835938 106.164062 193.285156 105.792969 193.699219 105.378906 C 194.113281 104.964844 194.484375 104.511719 194.808594 104.023438 C 195.132812 103.539062 195.410156 103.023438 195.632812 102.480469 C 195.855469 101.9375 196.027344 101.378906 196.140625 100.804688 C 196.253906 100.230469 196.3125 99.648438 196.3125 99.0625 C 196.3125 98.472656 196.253906 97.894531 196.140625 97.316406 C 196.027344 96.742188 195.855469 96.183594 195.632812 95.640625 C 195.410156 95.097656 195.132812 94.582031 194.808594 94.097656 C 194.484375 93.609375 194.113281 93.15625 193.699219 92.742188 C 193.285156 92.328125 192.835938 91.957031 192.347656 91.628906 C 191.863281 91.304688 191.347656 91.03125 190.808594 90.804688 C 190.265625 90.582031 189.707031 90.410156 189.132812 90.296875 C 188.558594 90.183594 187.980469 90.125 187.394531 90.125 Z M 187.394531 90.125 " fill-opacity="1" fill-rule="nonzero"/><g clip-path="url(#32bab6b815)"><path fill="#eee0d8" d="M 229.992188 190.4375 C 218.375 190.4375 206.730469 184.632812 196.375 179.460938 C 193.828125 178.183594 191.484375 177.023438 189.128906 175.925781 C 178.058594 170.816406 152.183594 158.664062 141.765625 172.476562 C 141.601562 172.675781 141.390625 172.785156 141.136719 172.808594 C 140.882812 172.832031 140.65625 172.761719 140.460938 172.597656 C 140.261719 172.433594 140.152344 172.226562 140.128906 171.96875 C 140.105469 171.714844 140.175781 171.488281 140.335938 171.289062 C 151.5625 156.328125 178.414062 168.851562 189.878906 174.199219 C 192.261719 175.3125 194.644531 176.5 197.164062 177.761719 C 208.121094 183.226562 220.527344 189.40625 232.527344 188.449219 C 244.921875 187.453125 253.585938 178.757812 253.585938 167.320312 C 253.582031 166.628906 253.546875 165.941406 253.476562 165.253906 C 253.410156 164.566406 253.304688 163.882812 253.167969 163.207031 C 253.035156 162.527344 252.863281 161.859375 252.664062 161.199219 C 252.460938 160.539062 252.226562 159.886719 251.960938 159.25 C 251.699219 158.613281 251.402344 157.988281 251.074219 157.378906 C 250.75 156.773438 250.394531 156.179688 250.011719 155.605469 C 249.628906 155.03125 249.214844 154.480469 248.777344 153.945312 C 248.339844 153.410156 247.878906 152.902344 247.390625 152.414062 C 246.902344 151.925781 246.390625 151.460938 245.859375 151.023438 C 245.324219 150.585938 244.769531 150.175781 244.199219 149.792969 C 243.625 149.40625 243.035156 149.054688 242.425781 148.726562 C 241.816406 148.402344 241.195312 148.105469 240.558594 147.84375 C 239.921875 147.578125 239.273438 147.34375 238.613281 147.144531 C 237.953125 146.945312 237.285156 146.773438 236.609375 146.640625 C 235.933594 146.503906 235.253906 146.402344 234.566406 146.335938 C 233.878906 146.265625 233.191406 146.230469 232.503906 146.230469 C 220.769531 146.230469 188.199219 167.933594 187.917969 168.097656 C 187.816406 168.171875 187.707031 168.21875 187.589844 168.246094 C 187.46875 168.273438 187.347656 168.277344 187.226562 168.253906 C 187.109375 168.230469 186.996094 168.183594 186.894531 168.113281 C 186.792969 168.046875 186.710938 167.960938 186.644531 167.855469 C 186.503906 167.644531 186.457031 167.414062 186.507812 167.164062 C 186.554688 166.914062 186.6875 166.71875 186.898438 166.578125 C 188.210938 165.710938 220.234375 144.480469 232.503906 144.480469 C 233.253906 144.480469 234.003906 144.519531 234.75 144.59375 C 235.496094 144.667969 236.238281 144.777344 236.976562 144.921875 C 237.710938 145.070312 238.441406 145.253906 239.160156 145.472656 C 239.878906 145.691406 240.582031 145.941406 241.277344 146.230469 C 241.972656 146.519531 242.648438 146.839844 243.3125 147.195312 C 243.972656 147.550781 244.617188 147.9375 245.242188 148.355469 C 245.867188 148.773438 246.46875 149.21875 247.050781 149.699219 C 247.628906 150.175781 248.1875 150.679688 248.714844 151.210938 C 249.246094 151.746094 249.75 152.300781 250.226562 152.882812 C 250.703125 153.464844 251.152344 154.070312 251.566406 154.695312 C 251.984375 155.320312 252.371094 155.964844 252.726562 156.628906 C 253.078125 157.292969 253.398438 157.972656 253.6875 158.667969 C 253.972656 159.363281 254.226562 160.070312 254.445312 160.789062 C 254.664062 161.511719 254.84375 162.238281 254.992188 162.976562 C 255.136719 163.714844 255.25 164.460938 255.320312 165.207031 C 255.394531 165.957031 255.433594 166.707031 255.433594 167.460938 C 255.433594 179.675781 245.878906 189.316406 232.730469 190.363281 C 231.796875 190.414062 230.886719 190.4375 229.992188 190.4375 Z M 229.992188 190.4375 " fill-opacity="1" fill-rule="nonzero"/></g><g clip-path="url(#ce3efe2a12)"><path fill="#eee0d8" d="M 142.351562 190.261719 C 141.601562 190.261719 140.851562 190.222656 140.105469 190.152344 C 139.359375 190.078125 138.621094 189.96875 137.886719 189.820312 C 137.148438 189.675781 136.421875 189.492188 135.707031 189.273438 C 134.988281 189.058594 134.28125 188.804688 133.589844 188.519531 C 132.898438 188.230469 132.21875 187.910156 131.558594 187.558594 C 130.898438 187.203125 130.253906 186.816406 129.632812 186.402344 C 129.007812 185.984375 128.40625 185.539062 127.824219 185.0625 C 127.246094 184.585938 126.691406 184.082031 126.160156 183.554688 C 125.628906 183.023438 125.125 182.46875 124.648438 181.886719 C 124.171875 181.308594 123.726562 180.707031 123.308594 180.082031 C 122.890625 179.457031 122.503906 178.816406 122.148438 178.152344 C 121.792969 177.492188 121.472656 176.8125 121.183594 176.121094 C 120.894531 175.425781 120.640625 174.71875 120.421875 174.003906 C 120.203125 173.285156 120.019531 172.554688 119.871094 171.820312 C 119.722656 171.082031 119.613281 170.339844 119.535156 169.59375 C 119.460938 168.847656 119.421875 168.097656 119.421875 167.347656 C 119.421875 155.117188 128.960938 145.476562 142.121094 144.367188 C 154.605469 143.359375 167.253906 149.664062 178.414062 155.230469 C 180.960938 156.507812 183.304688 157.667969 185.664062 158.765625 C 196.730469 164 222.667969 176.101562 233.011719 162.355469 C 233.160156 162.15625 233.355469 162.039062 233.597656 162.003906 C 233.84375 161.972656 234.0625 162.027344 234.261719 162.175781 C 234.457031 162.324219 234.574219 162.519531 234.609375 162.765625 C 234.644531 163.007812 234.585938 163.230469 234.4375 163.425781 C 223.230469 178.386719 196.375 165.863281 184.898438 160.515625 C 182.527344 159.40625 180.144531 158.21875 177.613281 156.953125 C 166.667969 151.503906 154.25 145.3125 142.261719 146.269531 C 129.867188 147.199219 121.203125 155.894531 121.203125 167.347656 C 121.203125 168.039062 121.238281 168.730469 121.308594 169.417969 C 121.378906 170.109375 121.480469 170.792969 121.613281 171.472656 C 121.75 172.152344 121.917969 172.824219 122.121094 173.488281 C 122.324219 174.152344 122.554688 174.800781 122.820312 175.441406 C 123.085938 176.082031 123.382812 176.707031 123.710938 177.316406 C 124.039062 177.929688 124.394531 178.523438 124.777344 179.097656 C 125.164062 179.671875 125.574219 180.230469 126.015625 180.765625 C 126.453125 181.300781 126.917969 181.8125 127.410156 182.300781 C 127.898438 182.789062 128.410156 183.253906 128.945312 183.691406 C 129.480469 184.132812 130.039062 184.542969 130.613281 184.925781 C 131.1875 185.3125 131.78125 185.667969 132.390625 185.992188 C 133.003906 186.316406 133.628906 186.613281 134.265625 186.875 C 134.90625 187.140625 135.558594 187.371094 136.21875 187.574219 C 136.882812 187.773438 137.550781 187.941406 138.230469 188.074219 C 138.910156 188.207031 139.59375 188.308594 140.28125 188.375 C 140.96875 188.441406 141.660156 188.476562 142.351562 188.472656 C 154.082031 188.472656 186.65625 166.769531 186.9375 166.59375 C 187.035156 166.519531 187.148438 166.472656 187.265625 166.445312 C 187.386719 166.421875 187.507812 166.421875 187.628906 166.445312 C 187.75 166.46875 187.859375 166.515625 187.960938 166.585938 C 188.0625 166.65625 188.144531 166.742188 188.210938 166.847656 C 188.28125 166.949219 188.332031 167.058594 188.359375 167.175781 C 188.382812 167.296875 188.386719 167.417969 188.363281 167.539062 C 188.339844 167.660156 188.296875 167.769531 188.226562 167.871094 C 188.15625 167.972656 188.070312 168.058594 187.96875 168.125 C 186.542969 168.992188 154.554688 190.261719 142.351562 190.261719 Z M 142.351562 190.261719 " fill-opacity="1" fill-rule="nonzero"/></g><g clip-path="url(#7d4f16c895)"><path fill="#eee0d8" d="M 211.433594 153.941406 C 211.1875 153.941406 210.980469 153.855469 210.808594 153.683594 C 210.632812 153.511719 210.542969 153.304688 210.542969 153.0625 C 210.351562 142.273438 196.746094 133.910156 184.746094 126.417969 C 182.707031 125.140625 180.734375 123.863281 178.898438 122.742188 C 168.375 115.542969 162.734375 108.355469 161.625 100.769531 C 160.070312 90.0625 167.738281 80.601562 175.152344 71.410156 C 180.25 65.027344 185.113281 59.117188 186.515625 53.21875 C 186.578125 52.980469 186.714844 52.796875 186.925781 52.671875 C 187.136719 52.546875 187.359375 52.511719 187.597656 52.566406 C 187.832031 52.636719 188.011719 52.777344 188.128906 52.988281 C 188.25 53.203125 188.277344 53.429688 188.210938 53.664062 C 186.746094 59.972656 181.839844 66.085938 176.542969 72.570312 C 169.355469 81.417969 161.941406 90.585938 163.382812 100.503906 C 164.414062 107.574219 169.816406 114.367188 179.941406 121.246094 C 181.75 122.421875 183.765625 123.636719 185.738281 124.898438 C 198.132812 132.558594 212.183594 141.265625 212.386719 152.984375 C 212.390625 153.230469 212.308594 153.441406 212.136719 153.621094 C 211.964844 153.796875 211.753906 153.886719 211.507812 153.890625 Z M 211.433594 153.941406 " fill-opacity="1" fill-rule="nonzero"/></g><g clip-path="url(#132ae742ef)"><path fill="#eee0d8" d="M 163.890625 150.328125 L 163.648438 150.328125 C 163.410156 150.261719 163.234375 150.117188 163.113281 149.902344 C 162.992188 149.683594 162.96875 149.457031 163.039062 149.21875 C 165.839844 139.335938 178.199219 131.675781 189.101562 124.960938 C 191.128906 123.6875 193.101562 122.484375 194.921875 121.300781 C 204.972656 114.429688 210.375 107.640625 211.394531 100.566406 C 212.847656 90.648438 205.421875 81.480469 198.25 72.636719 C 193 66.148438 188.058594 60.023438 186.527344 53.730469 C 186.488281 53.609375 186.476562 53.484375 186.488281 53.355469 C 186.503906 53.230469 186.542969 53.113281 186.605469 53 C 186.667969 52.890625 186.75 52.796875 186.851562 52.722656 C 186.953125 52.648438 187.066406 52.59375 187.191406 52.566406 C 187.425781 52.523438 187.644531 52.570312 187.839844 52.703125 C 188.039062 52.835938 188.160156 53.023438 188.210938 53.257812 C 189.675781 59.15625 194.578125 65.117188 199.675781 71.433594 C 207.089844 80.601562 214.757812 90.0625 213.203125 100.796875 C 212.09375 108.378906 206.453125 115.566406 195.957031 122.753906 C 194.09375 123.953125 192.132812 125.179688 190.082031 126.445312 C 179.457031 133.019531 167.40625 140.484375 164.796875 149.703125 C 164.734375 149.898438 164.621094 150.054688 164.453125 150.171875 C 164.28125 150.289062 164.097656 150.339844 163.890625 150.328125 Z M 163.890625 150.328125 " fill-opacity="1" fill-rule="nonzero"/></g><g fill="#eee0d8" fill-opacity="1"><g transform="translate(51.16706, 230.686938)"><g><path d="M 6.5625 -12.84375 L 14 -12.84375 L 14 -11.515625 L 6.5625 -11.515625 L 6.5625 0 L 3.15625 0 L 3.15625 -23.234375 L 16.875 -23.234375 L 16.875 -20.875 L 10.390625 -21.96875 C 9.222656 -21.96875 7.945312 -21.769531 6.5625 -21.375 Z M 6.5625 -12.84375 "/></g></g></g><g fill="#eee0d8" fill-opacity="1"><g transform="translate(68.0458, 230.686938)"><g><path d="M 6.390625 -23.234375 L 6.390625 0 L 3.15625 0 L 3.15625 -23.234375 Z M 6.390625 -23.234375 "/></g></g></g><g fill="#eee0d8" fill-opacity="1"><g transform="translate(77.59053, 230.686938)"><g><path d="M 20.8125 0.390625 L 20.21875 0.390625 L 4.84375 -18.84375 L 4.703125 -18.84375 L 4.703125 0 L 3.15625 0 L 3.15625 -23.234375 L 5.75 -23.234375 L 19.125 -6.359375 L 19.265625 -6.359375 L 19.265625 -23.234375 L 20.8125 -23.234375 Z M 20.8125 0.390625 "/></g></g></g><g fill="#eee0d8" fill-opacity="1"><g transform="translate(101.55764, 230.686938)"><g><path d="M 3.15625 0 L 3.15625 -23.234375 L 9.796875 -23.234375 C 12.554688 -23.234375 15.046875 -22.648438 17.265625 -21.484375 C 18.460938 -20.867188 19.503906 -20.101562 20.390625 -19.1875 C 21.273438 -18.28125 21.988281 -17.117188 22.53125 -15.703125 C 23.070312 -14.285156 23.34375 -12.710938 23.34375 -10.984375 C 23.34375 -8.503906 22.722656 -6.410156 21.484375 -4.703125 C 19.210938 -1.566406 15.535156 0 10.453125 0 Z M 9.75 -1.1875 C 12.726562 -1.1875 15.117188 -2.0625 16.921875 -3.8125 C 18.722656 -5.570312 19.625 -8.148438 19.625 -11.546875 C 19.625 -14.160156 18.910156 -16.398438 17.484375 -18.265625 C 16.054688 -20.128906 14.207031 -21.363281 11.9375 -21.96875 C 9.894531 -21.96875 8.113281 -21.722656 6.59375 -21.234375 L 6.59375 -1.515625 C 7.34375 -1.296875 8.394531 -1.1875 9.75 -1.1875 Z M 9.75 -1.1875 "/></g></g></g><g fill="#eee0d8" fill-opacity="1"><g transform="translate(126.402026, 230.686938)"><g/></g></g><g fill="#eee0d8" fill-opacity="1"><g transform="translate(135.174764, 230.686938)"><g><path d="M 12.03125 0 L 8.640625 0 L 8.640625 -8.640625 L 0.703125 -23.234375 L 4.53125 -23.234375 L 11.015625 -9.890625 L 17.09375 -23.234375 L 18.84375 -23.234375 L 12.03125 -8.8125 Z M 12.03125 0 "/></g></g></g><g fill="#eee0d8" fill-opacity="1"><g transform="translate(154.72042, 230.686938)"><g><path d="M 13.71875 -23.65625 C 16.757812 -23.65625 19.273438 -22.65625 21.265625 -20.65625 C 23.253906 -18.65625 24.25 -15.875 24.25 -12.3125 C 24.25 -10.019531 23.847656 -8.015625 23.046875 -6.296875 C 22.253906 -4.578125 21.21875 -3.25 19.9375 -2.3125 C 17.425781 -0.488281 14.660156 0.421875 11.640625 0.421875 C 8.628906 0.421875 6.132812 -0.585938 4.15625 -2.609375 C 2.175781 -4.640625 1.1875 -7.429688 1.1875 -10.984375 C 1.1875 -12.828125 1.445312 -14.492188 1.96875 -15.984375 C 2.5 -17.472656 3.191406 -18.679688 4.046875 -19.609375 C 4.898438 -20.546875 5.890625 -21.332031 7.015625 -21.96875 C 9.078125 -23.09375 11.3125 -23.65625 13.71875 -23.65625 Z M 6.671875 -4 C 7.273438 -2.96875 8.09375 -2.164062 9.125 -1.59375 C 10.15625 -1.019531 11.34375 -0.734375 12.6875 -0.734375 C 14.03125 -0.734375 15.226562 -1.070312 16.28125 -1.75 C 17.332031 -2.425781 18.148438 -3.316406 18.734375 -4.421875 C 19.929688 -6.617188 20.53125 -8.984375 20.53125 -11.515625 C 20.53125 -14.617188 19.910156 -17.117188 18.671875 -19.015625 C 17.285156 -21.148438 15.003906 -22.21875 11.828125 -22.21875 C 9.554688 -21.414062 7.832031 -20.046875 6.65625 -18.109375 C 5.488281 -16.171875 4.90625 -13.972656 4.90625 -11.515625 C 4.90625 -8.515625 5.492188 -6.007812 6.671875 -4 Z M 6.671875 -4 "/></g></g></g><g fill="#eee0d8" fill-opacity="1"><g transform="translate(180.161343, 230.686938)"><g><path d="M 20.421875 -23.234375 L 20.421875 -8.984375 C 20.421875 -6.804688 20.1875 -5.171875 19.71875 -4.078125 C 19.507812 -3.578125 19.175781 -3.015625 18.71875 -2.390625 C 18.257812 -1.773438 17.726562 -1.28125 17.125 -0.90625 C 15.582031 -0.0195312 13.648438 0.421875 11.328125 0.421875 C 5.523438 0.421875 2.625 -2.5625 2.625 -8.53125 L 2.625 -23.234375 L 6.21875 -23.234375 L 6.21875 -8.25 C 6.21875 -7.570312 6.226562 -7.019531 6.25 -6.59375 C 6.269531 -6.175781 6.390625 -5.582031 6.609375 -4.8125 C 6.835938 -4.039062 7.144531 -3.421875 7.53125 -2.953125 C 7.914062 -2.484375 8.519531 -2.0625 9.34375 -1.6875 C 10.175781 -1.3125 11.164062 -1.125 12.3125 -1.125 C 16.6875 -1.125 18.875 -3.460938 18.875 -8.140625 L 18.875 -23.234375 Z M 20.421875 -23.234375 "/></g></g></g><g fill="#eee0d8" fill-opacity="1"><g transform="translate(203.21609, 230.686938)"><g><path d="M 6.59375 -11.09375 L 6.59375 0 L 3.15625 0 L 3.15625 -23.234375 L 10.734375 -23.234375 C 13.097656 -23.234375 15.035156 -22.707031 16.546875 -21.65625 C 18.054688 -20.601562 18.8125 -19.21875 18.8125 -17.5 C 18.8125 -15.78125 18.207031 -14.421875 17 -13.421875 C 15.800781 -12.429688 14.171875 -11.75 12.109375 -11.375 L 21.515625 0 L 17.4375 0.484375 L 9.296875 -11.09375 Z M 6.59375 -12.140625 L 8.84375 -12.140625 C 13.050781 -12.140625 15.15625 -13.800781 15.15625 -17.125 C 15.15625 -17.6875 15.015625 -18.316406 14.734375 -19.015625 C 14.203125 -20.492188 13.054688 -21.46875 11.296875 -21.9375 C 9.703125 -21.9375 8.132812 -21.738281 6.59375 -21.34375 Z M 6.59375 -12.140625 "/></g></g></g><g fill="#eee0d8" fill-opacity="1"><g transform="translate(225.604102, 230.686938)"><g/></g></g><g fill="#eee0d8" fill-opacity="1"><g transform="translate(234.37684, 230.686938)"><g><path d="M 6.5625 -12.84375 L 14 -12.84375 L 14 -11.515625 L 6.5625 -11.515625 L 6.5625 0 L 3.15625 0 L 3.15625 -23.234375 L 16.875 -23.234375 L 16.875 -20.875 L 10.390625 -21.96875 C 9.222656 -21.96875 7.945312 -21.769531 6.5625 -21.375 Z M 6.5625 -12.84375 "/></g></g></g><g fill="#eee0d8" fill-opacity="1"><g transform="translate(251.25558, 230.686938)"><g><path d="M 3.15625 0 L 3.15625 -23.234375 L 6.59375 -23.234375 L 6.59375 -1.890625 C 8.019531 -1.472656 9.164062 -1.265625 10.03125 -1.265625 L 16.390625 -2.34375 L 15.96875 0 Z M 3.15625 0 "/></g></g></g><g fill="#eee0d8" fill-opacity="1"><g transform="translate(268.34486, 230.686938)"><g><path d="M 13.71875 -23.65625 C 16.757812 -23.65625 19.273438 -22.65625 21.265625 -20.65625 C 23.253906 -18.65625 24.25 -15.875 24.25 -12.3125 C 24.25 -10.019531 23.847656 -8.015625 23.046875 -6.296875 C 22.253906 -4.578125 21.21875 -3.25 19.9375 -2.3125 C 17.425781 -0.488281 14.660156 0.421875 11.640625 0.421875 C 8.628906 0.421875 6.132812 -0.585938 4.15625 -2.609375 C 2.175781 -4.640625 1.1875 -7.429688 1.1875 -10.984375 C 1.1875 -12.828125 1.445312 -14.492188 1.96875 -15.984375 C 2.5 -17.472656 3.191406 -18.679688 4.046875 -19.609375 C 4.898438 -20.546875 5.890625 -21.332031 7.015625 -21.96875 C 9.078125 -23.09375 11.3125 -23.65625 13.71875 -23.65625 Z M 6.671875 -4 C 7.273438 -2.96875 8.09375 -2.164062 9.125 -1.59375 C 10.15625 -1.019531 11.34375 -0.734375 12.6875 -0.734375 C 14.03125 -0.734375 15.226562 -1.070312 16.28125 -1.75 C 17.332031 -2.425781 18.148438 -3.316406 18.734375 -4.421875 C 19.929688 -6.617188 20.53125 -8.984375 20.53125 -11.515625 C 20.53125 -14.617188 19.910156 -17.117188 18.671875 -19.015625 C 17.285156 -21.148438 15.003906 -22.21875 11.828125 -22.21875 C 9.554688 -21.414062 7.832031 -20.046875 6.65625 -18.109375 C 5.488281 -16.171875 4.90625 -13.972656 4.90625 -11.515625 C 4.90625 -8.515625 5.492188 -6.007812 6.671875 -4 Z M 6.671875 -4 "/></g></g></g><g fill="#eee0d8" fill-opacity="1"><g transform="translate(293.785783, 230.686938)"><g><path d="M 27.9375 -23.234375 L 29.6875 -23.234375 L 20.984375 0.53125 L 20.421875 0.53125 L 15.0625 -13.859375 L 9.796875 0.53125 L 9.234375 0.53125 L 0.34375 -23.234375 L 4.171875 -23.234375 L 10.359375 -4.21875 L 14.28125 -15.9375 L 11.546875 -23.234375 L 15.375 -23.234375 L 21.546875 -4.21875 Z M 27.9375 -23.234375 "/></g></g></g><g fill="#eee0d8" fill-opacity="1"><g transform="translate(138.157418, 262.911323)"><g><path d="M 1.453125 -7.296875 L 0.390625 -7.421875 L 0.390625 -7.84375 C 0.453125 -7.882812 0.546875 -7.9375 0.671875 -8 C 0.796875 -8.0625 0.941406 -8.125 1.109375 -8.1875 C 1.273438 -8.257812 1.441406 -8.320312 1.609375 -8.375 C 1.785156 -8.425781 1.953125 -8.453125 2.109375 -8.453125 C 2.335938 -8.453125 2.503906 -8.390625 2.609375 -8.265625 C 2.710938 -8.148438 2.796875 -8.003906 2.859375 -7.828125 L 4.21875 -2.046875 L 4.28125 -1.0625 L 4.3125 -1.0625 L 4.6875 -2.03125 C 4.832031 -2.332031 4.976562 -2.664062 5.125 -3.03125 C 5.269531 -3.40625 5.414062 -3.78125 5.5625 -4.15625 C 5.707031 -4.53125 5.835938 -4.898438 5.953125 -5.265625 C 6.078125 -5.628906 6.179688 -5.960938 6.265625 -6.265625 C 6.265625 -6.390625 6.25 -6.550781 6.21875 -6.75 C 6.195312 -6.945312 6.171875 -7.144531 6.140625 -7.34375 C 6.109375 -7.539062 6.070312 -7.722656 6.03125 -7.890625 C 6 -8.066406 5.972656 -8.1875 5.953125 -8.25 C 6.109375 -8.3125 6.273438 -8.359375 6.453125 -8.390625 C 6.628906 -8.429688 6.800781 -8.453125 6.96875 -8.453125 C 7.289062 -8.453125 7.582031 -8.382812 7.84375 -8.25 C 7.5 -6.882812 7.03125 -5.519531 6.4375 -4.15625 C 5.851562 -2.789062 5.203125 -1.40625 4.484375 0 C 3.890625 1.15625 3.296875 2.019531 2.703125 2.59375 C 2.109375 3.164062 1.4375 3.453125 0.6875 3.453125 C 0.53125 3.453125 0.375 3.425781 0.21875 3.375 C 0.0703125 3.332031 -0.0820312 3.269531 -0.25 3.1875 C -0.257812 3.0625 -0.25 2.921875 -0.21875 2.765625 C -0.1875 2.617188 -0.132812 2.46875 -0.0625 2.3125 C 0.0078125 2.15625 0.101562 2.007812 0.21875 1.875 C 0.332031 1.75 0.460938 1.644531 0.609375 1.5625 L 1.953125 2.265625 C 2.023438 2.203125 2.117188 2.117188 2.234375 2.015625 C 2.359375 1.910156 2.488281 1.765625 2.625 1.578125 C 2.757812 1.398438 2.890625 1.179688 3.015625 0.921875 C 3.148438 0.671875 3.28125 0.363281 3.40625 0 Z M 1.453125 -7.296875 "/></g></g></g><g fill="#eee0d8" fill-opacity="1"><g transform="translate(146.795517, 262.911323)"><g><path d="M 0.671875 -3.0625 C 0.671875 -3.644531 0.757812 -4.253906 0.9375 -4.890625 C 1.125 -5.523438 1.40625 -6.101562 1.78125 -6.625 C 2.15625 -7.15625 2.625 -7.59375 3.1875 -7.9375 C 3.75 -8.28125 4.398438 -8.453125 5.140625 -8.453125 C 6.003906 -8.453125 6.648438 -8.1875 7.078125 -7.65625 C 7.515625 -7.125 7.734375 -6.34375 7.734375 -5.3125 C 7.734375 -4.582031 7.628906 -3.882812 7.421875 -3.21875 C 7.210938 -2.5625 6.921875 -1.976562 6.546875 -1.46875 C 6.171875 -0.957031 5.71875 -0.550781 5.1875 -0.25 C 4.664062 0.0507812 4.085938 0.203125 3.453125 0.203125 C 2.597656 0.203125 1.921875 -0.0664062 1.421875 -0.609375 C 0.921875 -1.160156 0.671875 -1.976562 0.671875 -3.0625 Z M 4.8125 -7.734375 C 4.28125 -7.722656 3.84375 -7.546875 3.5 -7.203125 C 3.15625 -6.867188 2.882812 -6.445312 2.6875 -5.9375 C 2.488281 -5.4375 2.347656 -4.894531 2.265625 -4.3125 C 2.191406 -3.726562 2.15625 -3.191406 2.15625 -2.703125 C 2.15625 -2.054688 2.296875 -1.53125 2.578125 -1.125 C 2.867188 -0.71875 3.257812 -0.515625 3.75 -0.515625 C 4.132812 -0.515625 4.476562 -0.660156 4.78125 -0.953125 C 5.082031 -1.242188 5.335938 -1.628906 5.546875 -2.109375 C 5.765625 -2.585938 5.929688 -3.128906 6.046875 -3.734375 C 6.160156 -4.335938 6.21875 -4.945312 6.21875 -5.5625 C 6.21875 -6.207031 6.101562 -6.726562 5.875 -7.125 C 5.65625 -7.519531 5.300781 -7.722656 4.8125 -7.734375 Z M 4.8125 -7.734375 "/></g></g></g><g fill="#eee0d8" fill-opacity="1"><g transform="translate(156.323715, 262.911323)"><g><path d="M 4.625 -8.453125 C 5.144531 -8.453125 5.570312 -8.382812 5.90625 -8.25 C 6.25 -8.113281 6.515625 -7.972656 6.703125 -7.828125 C 6.796875 -7.910156 6.925781 -7.992188 7.09375 -8.078125 C 7.257812 -8.171875 7.4375 -8.253906 7.625 -8.328125 C 7.8125 -8.410156 8.003906 -8.484375 8.203125 -8.546875 C 8.398438 -8.609375 8.585938 -8.671875 8.765625 -8.734375 C 8.796875 -8.671875 8.820312 -8.582031 8.84375 -8.46875 C 8.863281 -8.363281 8.867188 -8.242188 8.859375 -8.109375 C 8.859375 -7.984375 8.835938 -7.847656 8.796875 -7.703125 C 8.765625 -7.566406 8.707031 -7.445312 8.625 -7.34375 L 6.9375 -7.453125 C 6.96875 -7.359375 7 -7.25 7.03125 -7.125 C 7.0625 -7 7.078125 -6.859375 7.078125 -6.703125 C 7.078125 -6.253906 6.984375 -5.84375 6.796875 -5.46875 C 6.617188 -5.101562 6.367188 -4.785156 6.046875 -4.515625 C 5.734375 -4.242188 5.363281 -4.03125 4.9375 -3.875 C 4.519531 -3.71875 4.070312 -3.640625 3.59375 -3.640625 C 3.40625 -3.640625 3.253906 -3.640625 3.140625 -3.640625 C 3.023438 -3.648438 2.894531 -3.675781 2.75 -3.71875 C 2.65625 -3.601562 2.519531 -3.472656 2.34375 -3.328125 C 2.175781 -3.179688 2.09375 -3.019531 2.09375 -2.84375 C 2.09375 -2.65625 2.210938 -2.507812 2.453125 -2.40625 C 2.703125 -2.3125 3.007812 -2.222656 3.375 -2.140625 C 3.738281 -2.054688 4.132812 -1.96875 4.5625 -1.875 C 5 -1.78125 5.398438 -1.648438 5.765625 -1.484375 C 6.128906 -1.328125 6.429688 -1.125 6.671875 -0.875 C 6.921875 -0.625 7.046875 -0.289062 7.046875 0.125 C 7.046875 0.644531 6.898438 1.109375 6.609375 1.515625 C 6.316406 1.929688 5.929688 2.285156 5.453125 2.578125 C 4.972656 2.867188 4.425781 3.09375 3.8125 3.25 C 3.207031 3.414062 2.59375 3.5 1.96875 3.5 C 1.457031 3.5 1.019531 3.445312 0.65625 3.34375 C 0.289062 3.238281 -0.00390625 3.09375 -0.234375 2.90625 C -0.460938 2.726562 -0.628906 2.523438 -0.734375 2.296875 C -0.847656 2.066406 -0.90625 1.820312 -0.90625 1.5625 C -0.90625 1.257812 -0.835938 0.972656 -0.703125 0.703125 C -0.566406 0.441406 -0.378906 0.195312 -0.140625 -0.03125 C 0.0859375 -0.269531 0.347656 -0.488281 0.640625 -0.6875 C 0.941406 -0.882812 1.25 -1.070312 1.5625 -1.25 C 1.394531 -1.34375 1.257812 -1.460938 1.15625 -1.609375 C 1.050781 -1.753906 1 -1.921875 1 -2.109375 C 1 -2.273438 1.054688 -2.445312 1.171875 -2.625 C 1.285156 -2.8125 1.414062 -2.988281 1.5625 -3.15625 C 1.707031 -3.320312 1.851562 -3.460938 2 -3.578125 C 2.15625 -3.703125 2.269531 -3.789062 2.34375 -3.84375 C 2.207031 -3.875 2.070312 -3.929688 1.9375 -4.015625 C 1.800781 -4.109375 1.671875 -4.226562 1.546875 -4.375 C 1.429688 -4.519531 1.332031 -4.679688 1.25 -4.859375 C 1.175781 -5.046875 1.140625 -5.257812 1.140625 -5.5 C 1.140625 -5.925781 1.226562 -6.320312 1.40625 -6.6875 C 1.59375 -7.050781 1.84375 -7.359375 2.15625 -7.609375 C 2.476562 -7.867188 2.847656 -8.070312 3.265625 -8.21875 C 3.679688 -8.375 4.132812 -8.453125 4.625 -8.453125 Z M 2.71875 2.78125 C 3.0625 2.78125 3.398438 2.726562 3.734375 2.625 C 4.066406 2.53125 4.367188 2.394531 4.640625 2.21875 C 4.910156 2.039062 5.128906 1.816406 5.296875 1.546875 C 5.472656 1.273438 5.5625 0.96875 5.5625 0.625 C 5.5625 0.289062 5.425781 0.0351562 5.15625 -0.140625 C 4.882812 -0.316406 4.554688 -0.460938 4.171875 -0.578125 C 3.785156 -0.691406 3.382812 -0.78125 2.96875 -0.84375 C 2.5625 -0.914062 2.207031 -1.003906 1.90625 -1.109375 C 1.394531 -0.734375 1.039062 -0.34375 0.84375 0.0625 C 0.65625 0.46875 0.566406 0.847656 0.578125 1.203125 C 0.566406 1.703125 0.753906 2.085938 1.140625 2.359375 C 1.535156 2.640625 2.0625 2.78125 2.71875 2.78125 Z M 4.484375 -7.78125 C 4.171875 -7.78125 3.890625 -7.71875 3.640625 -7.59375 C 3.390625 -7.476562 3.175781 -7.316406 3 -7.109375 C 2.820312 -6.910156 2.6875 -6.671875 2.59375 -6.390625 C 2.507812 -6.117188 2.46875 -5.832031 2.46875 -5.53125 C 2.46875 -5.113281 2.601562 -4.804688 2.875 -4.609375 C 3.144531 -4.410156 3.4375 -4.3125 3.75 -4.3125 C 4.070312 -4.3125 4.351562 -4.367188 4.59375 -4.484375 C 4.832031 -4.597656 5.03125 -4.753906 5.1875 -4.953125 C 5.34375 -5.148438 5.457031 -5.375 5.53125 -5.625 C 5.613281 -5.875 5.65625 -6.140625 5.65625 -6.421875 C 5.65625 -6.828125 5.554688 -7.15625 5.359375 -7.40625 C 5.171875 -7.65625 4.878906 -7.78125 4.484375 -7.78125 Z M 4.484375 -7.78125 "/></g></g></g><g fill="#eee0d8" fill-opacity="1"><g transform="translate(165.522238, 262.911323)"><g><path d="M 3.125 -0.828125 C 3.414062 -0.828125 3.707031 -0.96875 4 -1.25 C 4.300781 -1.53125 4.582031 -1.867188 4.84375 -2.265625 C 5.113281 -2.660156 5.351562 -3.070312 5.5625 -3.5 C 5.769531 -3.925781 5.9375 -4.285156 6.0625 -4.578125 L 6.578125 -7.390625 C 6.429688 -7.503906 6.285156 -7.582031 6.140625 -7.625 C 5.992188 -7.664062 5.796875 -7.6875 5.546875 -7.6875 C 5.035156 -7.6875 4.570312 -7.53125 4.15625 -7.21875 C 3.75 -6.90625 3.398438 -6.5 3.109375 -6 C 2.816406 -5.507812 2.585938 -4.960938 2.421875 -4.359375 C 2.265625 -3.753906 2.1875 -3.160156 2.1875 -2.578125 C 2.1875 -2.015625 2.253906 -1.582031 2.390625 -1.28125 C 2.535156 -0.976562 2.78125 -0.828125 3.125 -0.828125 Z M 5.71875 -3.234375 C 5.582031 -2.835938 5.40625 -2.4375 5.1875 -2.03125 C 4.976562 -1.625 4.734375 -1.253906 4.453125 -0.921875 C 4.171875 -0.585938 3.859375 -0.316406 3.515625 -0.109375 C 3.171875 0.0976562 2.804688 0.203125 2.421875 0.203125 C 1.273438 0.203125 0.703125 -0.628906 0.703125 -2.296875 C 0.703125 -3.066406 0.8125 -3.816406 1.03125 -4.546875 C 1.257812 -5.273438 1.582031 -5.925781 2 -6.5 C 2.414062 -7.070312 2.921875 -7.53125 3.515625 -7.875 C 4.117188 -8.226562 4.800781 -8.40625 5.5625 -8.40625 C 5.832031 -8.40625 6.050781 -8.378906 6.21875 -8.328125 C 6.382812 -8.273438 6.582031 -8.195312 6.8125 -8.09375 C 7.25 -8.332031 7.710938 -8.453125 8.203125 -8.453125 L 6.71875 -0.90625 L 7.921875 -0.90625 L 7.921875 -0.5 C 7.703125 -0.320312 7.4375 -0.175781 7.125 -0.0625 C 6.820312 0.0390625 6.519531 0.09375 6.21875 0.09375 C 5.894531 0.09375 5.664062 0.0234375 5.53125 -0.109375 C 5.394531 -0.242188 5.328125 -0.390625 5.328125 -0.546875 C 5.328125 -0.742188 5.363281 -1.066406 5.4375 -1.515625 C 5.519531 -1.960938 5.640625 -2.535156 5.796875 -3.234375 Z M 5.71875 -3.234375 "/></g></g></g><g fill="#eee0d8" fill-opacity="1"><g transform="translate(175.479, 262.911323)"><g/></g></g><g fill="#eee0d8" fill-opacity="1"><g transform="translate(180.622685, 262.911323)"><g><path d="M 2.703125 -11.25 L 1.546875 -11.40625 L 1.546875 -11.78125 C 1.722656 -11.84375 1.914062 -11.90625 2.125 -11.96875 C 2.332031 -12.039062 2.539062 -12.109375 2.75 -12.171875 C 2.96875 -12.234375 3.179688 -12.28125 3.390625 -12.3125 C 3.609375 -12.351562 3.800781 -12.382812 3.96875 -12.40625 L 4.328125 -12.21875 L 2.875 -5.34375 L 2.953125 -5.34375 C 3.148438 -5.738281 3.363281 -6.125 3.59375 -6.5 C 3.832031 -6.875 4.085938 -7.203125 4.359375 -7.484375 C 4.628906 -7.773438 4.910156 -8.007812 5.203125 -8.1875 C 5.503906 -8.363281 5.820312 -8.453125 6.15625 -8.453125 C 6.738281 -8.453125 7.195312 -8.25 7.53125 -7.84375 C 7.875 -7.4375 8.046875 -6.800781 8.046875 -5.9375 C 8.046875 -5.09375 7.925781 -4.296875 7.6875 -3.546875 C 7.457031 -2.804688 7.128906 -2.160156 6.703125 -1.609375 C 6.273438 -1.054688 5.753906 -0.613281 5.140625 -0.28125 C 4.535156 0.0390625 3.867188 0.203125 3.140625 0.203125 C 2.597656 0.203125 2.09375 0.132812 1.625 0 C 1.15625 -0.144531 0.8125 -0.3125 0.59375 -0.5 Z M 5.46875 -7.421875 C 5.175781 -7.421875 4.890625 -7.296875 4.609375 -7.046875 C 4.335938 -6.796875 4.082031 -6.488281 3.84375 -6.125 C 3.613281 -5.769531 3.398438 -5.394531 3.203125 -5 C 3.015625 -4.613281 2.851562 -4.289062 2.71875 -4.03125 L 2.09375 -0.859375 C 2.257812 -0.742188 2.460938 -0.65625 2.703125 -0.59375 C 2.953125 -0.539062 3.203125 -0.515625 3.453125 -0.515625 C 3.878906 -0.515625 4.28125 -0.660156 4.65625 -0.953125 C 5.039062 -1.253906 5.375 -1.644531 5.65625 -2.125 C 5.945312 -2.613281 6.171875 -3.160156 6.328125 -3.765625 C 6.492188 -4.378906 6.570312 -5 6.5625 -5.625 C 6.570312 -6.15625 6.488281 -6.585938 6.3125 -6.921875 C 6.144531 -7.253906 5.863281 -7.421875 5.46875 -7.421875 Z M 5.46875 -7.421875 "/></g></g></g><g fill="#eee0d8" fill-opacity="1"><g transform="translate(190.431096, 262.911323)"><g><path d="M 8.046875 -0.90625 L 8.046875 -0.5 C 7.828125 -0.320312 7.5625 -0.175781 7.25 -0.0625 C 6.9375 0.0390625 6.632812 0.09375 6.34375 0.09375 C 6.019531 0.09375 5.785156 0.03125 5.640625 -0.09375 C 5.503906 -0.226562 5.4375 -0.375 5.4375 -0.53125 C 5.4375 -0.726562 5.460938 -1.0625 5.515625 -1.53125 C 5.578125 -2 5.703125 -2.566406 5.890625 -3.234375 L 5.828125 -3.234375 C 5.679688 -2.921875 5.5 -2.566406 5.28125 -2.171875 C 5.070312 -1.773438 4.816406 -1.398438 4.515625 -1.046875 C 4.222656 -0.703125 3.882812 -0.40625 3.5 -0.15625 C 3.125 0.0820312 2.707031 0.203125 2.25 0.203125 C 1.863281 0.203125 1.535156 0.0664062 1.265625 -0.203125 C 1.003906 -0.472656 0.875 -0.859375 0.875 -1.359375 C 0.875 -1.597656 0.910156 -1.953125 0.984375 -2.421875 C 1.066406 -2.898438 1.160156 -3.414062 1.265625 -3.96875 C 1.378906 -4.53125 1.5 -5.101562 1.625 -5.6875 C 1.75 -6.28125 1.863281 -6.816406 1.96875 -7.296875 L 0.953125 -7.4375 L 0.953125 -7.859375 C 1.128906 -7.921875 1.316406 -7.984375 1.515625 -8.046875 C 1.722656 -8.117188 1.925781 -8.179688 2.125 -8.234375 C 2.332031 -8.285156 2.53125 -8.332031 2.71875 -8.375 C 2.90625 -8.414062 3.078125 -8.441406 3.234375 -8.453125 L 3.59375 -8.25 C 3.414062 -7.425781 3.234375 -6.640625 3.046875 -5.890625 C 2.867188 -5.148438 2.707031 -4.367188 2.5625 -3.546875 C 2.5 -3.285156 2.4375 -2.988281 2.375 -2.65625 C 2.320312 -2.332031 2.296875 -1.976562 2.296875 -1.59375 C 2.296875 -1.363281 2.359375 -1.175781 2.484375 -1.03125 C 2.609375 -0.894531 2.753906 -0.828125 2.921875 -0.828125 C 3.160156 -0.828125 3.398438 -0.894531 3.640625 -1.03125 C 3.890625 -1.175781 4.117188 -1.363281 4.328125 -1.59375 C 4.546875 -1.832031 4.75 -2.085938 4.9375 -2.359375 C 5.132812 -2.640625 5.304688 -2.914062 5.453125 -3.1875 C 5.609375 -3.46875 5.738281 -3.726562 5.84375 -3.96875 C 5.945312 -4.207031 6.03125 -4.394531 6.09375 -4.53125 L 6.8125 -8.25 L 8.1875 -8.25 L 6.828125 -0.90625 Z M 8.046875 -0.90625 "/></g></g></g><g fill="#eee0d8" fill-opacity="1"><g transform="translate(200.503234, 262.911323)"><g><path d="M 1.171875 -7.4375 L 1.171875 -7.859375 C 1.335938 -7.921875 1.523438 -7.988281 1.734375 -8.0625 C 1.941406 -8.132812 2.15625 -8.195312 2.375 -8.25 C 2.59375 -8.300781 2.800781 -8.347656 3 -8.390625 C 3.195312 -8.429688 3.375 -8.453125 3.53125 -8.453125 L 3.828125 -8.25 L 2.28125 -0.921875 L 3.5 -0.921875 L 3.5 -0.5 C 3.269531 -0.320312 3 -0.175781 2.6875 -0.0625 C 2.382812 0.0390625 2.082031 0.09375 1.78125 0.09375 C 1.457031 0.09375 1.226562 0.0234375 1.09375 -0.109375 C 0.957031 -0.253906 0.890625 -0.421875 0.890625 -0.609375 C 0.890625 -0.828125 0.90625 -1.039062 0.9375 -1.25 C 0.96875 -1.457031 1.015625 -1.691406 1.078125 -1.953125 L 2.234375 -7.28125 Z M 2.5 -11.109375 C 2.5 -11.390625 2.582031 -11.613281 2.75 -11.78125 C 2.925781 -11.945312 3.160156 -12.03125 3.453125 -12.03125 C 3.765625 -12.03125 4.003906 -11.945312 4.171875 -11.78125 C 4.347656 -11.613281 4.4375 -11.390625 4.4375 -11.109375 C 4.4375 -10.828125 4.347656 -10.609375 4.171875 -10.453125 C 4.003906 -10.304688 3.765625 -10.234375 3.453125 -10.234375 C 3.160156 -10.234375 2.925781 -10.304688 2.75 -10.453125 C 2.582031 -10.609375 2.5 -10.828125 2.5 -11.109375 Z M 2.5 -11.109375 "/></g></g></g><g fill="#eee0d8" fill-opacity="1"><g transform="translate(206.207344, 262.911323)"><g><path d="M 2.875 -11.25 L 1.703125 -11.40625 L 1.703125 -11.8125 C 1.859375 -11.875 2.035156 -11.9375 2.234375 -12 C 2.441406 -12.070312 2.65625 -12.140625 2.875 -12.203125 C 3.101562 -12.265625 3.328125 -12.3125 3.546875 -12.34375 C 3.765625 -12.382812 3.960938 -12.40625 4.140625 -12.40625 L 4.46875 -12.21875 L 2.1875 -0.921875 L 3.40625 -0.921875 L 3.40625 -0.5 C 3.175781 -0.320312 2.90625 -0.175781 2.59375 -0.0625 C 2.28125 0.0390625 1.976562 0.09375 1.6875 0.09375 C 1.363281 0.09375 1.128906 0.0234375 0.984375 -0.109375 C 0.835938 -0.253906 0.765625 -0.421875 0.765625 -0.609375 C 0.765625 -0.828125 0.78125 -1.039062 0.8125 -1.25 C 0.84375 -1.457031 0.882812 -1.691406 0.9375 -1.953125 Z M 2.875 -11.25 "/></g></g></g><g fill="#eee0d8" fill-opacity="1"><g transform="translate(211.91145, 262.911323)"><g><path d="M 3.15625 -0.828125 C 3.445312 -0.828125 3.738281 -0.96875 4.03125 -1.25 C 4.332031 -1.53125 4.613281 -1.867188 4.875 -2.265625 C 5.144531 -2.660156 5.382812 -3.070312 5.59375 -3.5 C 5.800781 -3.925781 5.96875 -4.285156 6.09375 -4.578125 L 6.609375 -7.390625 C 6.453125 -7.503906 6.300781 -7.578125 6.15625 -7.609375 C 6.019531 -7.648438 5.828125 -7.675781 5.578125 -7.6875 C 5.046875 -7.675781 4.570312 -7.515625 4.15625 -7.203125 C 3.738281 -6.890625 3.382812 -6.488281 3.09375 -6 C 2.8125 -5.507812 2.597656 -4.960938 2.453125 -4.359375 C 2.304688 -3.753906 2.234375 -3.160156 2.234375 -2.578125 C 2.234375 -2.015625 2.300781 -1.582031 2.4375 -1.28125 C 2.570312 -0.976562 2.8125 -0.828125 3.15625 -0.828125 Z M 5.765625 -3.234375 C 5.617188 -2.835938 5.4375 -2.4375 5.21875 -2.03125 C 5 -1.625 4.75 -1.253906 4.46875 -0.921875 C 4.1875 -0.585938 3.875 -0.316406 3.53125 -0.109375 C 3.195312 0.0976562 2.835938 0.203125 2.453125 0.203125 C 1.316406 0.203125 0.75 -0.632812 0.75 -2.3125 C 0.75 -3.09375 0.859375 -3.847656 1.078125 -4.578125 C 1.296875 -5.304688 1.613281 -5.953125 2.03125 -6.515625 C 2.445312 -7.085938 2.953125 -7.546875 3.546875 -7.890625 C 4.140625 -8.234375 4.816406 -8.40625 5.578125 -8.40625 C 5.859375 -8.40625 6.070312 -8.382812 6.21875 -8.34375 C 6.363281 -8.300781 6.546875 -8.234375 6.765625 -8.140625 L 7.390625 -11.25 L 6.234375 -11.40625 L 6.234375 -11.8125 C 6.398438 -11.875 6.582031 -11.9375 6.78125 -12 C 6.976562 -12.0625 7.179688 -12.117188 7.390625 -12.171875 C 7.609375 -12.222656 7.828125 -12.269531 8.046875 -12.3125 C 8.265625 -12.351562 8.46875 -12.382812 8.65625 -12.40625 L 9.015625 -12.28125 L 6.75 -0.90625 L 7.953125 -0.90625 L 7.953125 -0.5 C 7.734375 -0.320312 7.46875 -0.175781 7.15625 -0.0625 C 6.851562 0.0390625 6.550781 0.09375 6.25 0.09375 C 5.9375 0.09375 5.707031 0.0234375 5.5625 -0.109375 C 5.425781 -0.242188 5.359375 -0.390625 5.359375 -0.546875 C 5.359375 -0.742188 5.394531 -1.066406 5.46875 -1.515625 C 5.550781 -1.960938 5.671875 -2.535156 5.828125 -3.234375 Z M 5.765625 -3.234375 "/></g></g></g><g fill="#eee0d8" fill-opacity="1"><g transform="translate(221.868212, 262.911323)"><g><path d="M 6.46875 -1.46875 C 6.363281 -1.257812 6.21875 -1.054688 6.03125 -0.859375 C 5.851562 -0.660156 5.632812 -0.476562 5.375 -0.3125 C 5.125 -0.15625 4.835938 -0.03125 4.515625 0.0625 C 4.203125 0.15625 3.863281 0.203125 3.5 0.203125 C 2.582031 0.203125 1.878906 -0.0546875 1.390625 -0.578125 C 0.898438 -1.109375 0.65625 -1.832031 0.65625 -2.75 C 0.65625 -3.53125 0.765625 -4.265625 0.984375 -4.953125 C 1.203125 -5.648438 1.507812 -6.257812 1.90625 -6.78125 C 2.3125 -7.300781 2.796875 -7.707031 3.359375 -8 C 3.921875 -8.300781 4.550781 -8.453125 5.25 -8.453125 C 5.769531 -8.453125 6.21875 -8.316406 6.59375 -8.046875 C 6.976562 -7.773438 7.171875 -7.375 7.171875 -6.84375 C 7.171875 -6.0625 6.78125 -5.445312 6 -5 C 5.226562 -4.550781 3.984375 -4.257812 2.265625 -4.125 C 2.210938 -3.9375 2.175781 -3.753906 2.15625 -3.578125 C 2.144531 -3.398438 2.140625 -3.226562 2.140625 -3.0625 C 2.140625 -2.40625 2.304688 -1.867188 2.640625 -1.453125 C 2.984375 -1.035156 3.476562 -0.828125 4.125 -0.828125 C 4.332031 -0.828125 4.535156 -0.859375 4.734375 -0.921875 C 4.941406 -0.984375 5.132812 -1.0625 5.3125 -1.15625 C 5.5 -1.257812 5.664062 -1.367188 5.8125 -1.484375 C 5.957031 -1.597656 6.085938 -1.695312 6.203125 -1.78125 Z M 4.734375 -7.734375 C 4.265625 -7.722656 3.828125 -7.5 3.421875 -7.0625 C 3.015625 -6.632812 2.664062 -5.890625 2.375 -4.828125 C 3.4375 -4.867188 4.265625 -5.054688 4.859375 -5.390625 C 5.460938 -5.722656 5.765625 -6.1875 5.765625 -6.78125 C 5.765625 -7.007812 5.691406 -7.222656 5.546875 -7.421875 C 5.410156 -7.617188 5.140625 -7.722656 4.734375 -7.734375 Z M 4.734375 -7.734375 "/></g></g></g><g fill="#eee0d8" fill-opacity="1"><g transform="translate(230.489841, 262.911323)"><g><path d="M 5.03125 -7.25 C 4.75 -7.132812 4.425781 -6.851562 4.0625 -6.40625 C 3.707031 -5.957031 3.394531 -5.359375 3.125 -4.609375 L 2.125 0 L 0.703125 0 L 2.25 -7.296875 L 1.234375 -7.4375 L 1.234375 -7.859375 C 1.609375 -8.035156 2 -8.171875 2.40625 -8.265625 C 2.8125 -8.359375 3.179688 -8.421875 3.515625 -8.453125 L 3.84375 -8.25 L 3.375 -6.0625 L 3.453125 -6.0625 C 3.765625 -6.78125 4.148438 -7.359375 4.609375 -7.796875 C 5.078125 -8.234375 5.578125 -8.453125 6.109375 -8.453125 C 6.242188 -8.453125 6.382812 -8.4375 6.53125 -8.40625 C 6.675781 -8.375 6.816406 -8.320312 6.953125 -8.25 C 6.953125 -8.144531 6.929688 -8.015625 6.890625 -7.859375 C 6.859375 -7.703125 6.8125 -7.539062 6.75 -7.375 C 6.695312 -7.207031 6.632812 -7.050781 6.5625 -6.90625 C 6.488281 -6.757812 6.414062 -6.644531 6.34375 -6.5625 Z M 5.03125 -7.25 "/></g></g></g></svg>