<svg xmlns="http://www.w3.org/2000/svg" xmlns:xlink="http://www.w3.org/1999/xlink" width="60" zoomAndPan="magnify" viewBox="0 0 375 374.999991" height="60" preserveAspectRatio="xMidYMid meet" version="1.0"><defs><clipPath id="09ecf12ab5"><path d="M 106 226 L 303.84375 226 L 303.84375 304.316406 L 106 304.316406 Z M 106 226 " clip-rule="nonzero"/></clipPath><clipPath id="c7e8f1ec6c"><path d="M 71.34375 226 L 268 226 L 268 304.316406 L 71.34375 304.316406 Z M 71.34375 226 " clip-rule="nonzero"/></clipPath><clipPath id="e4e1ea2368"><path d="M 143 70.316406 L 231 70.316406 L 231 243 L 143 243 Z M 143 70.316406 " clip-rule="nonzero"/></clipPath><clipPath id="876ab6e05e"><path d="M 145 70.316406 L 232 70.316406 L 232 237 L 145 237 Z M 145 70.316406 " clip-rule="nonzero"/></clipPath></defs><rect x="-37.5" width="450" fill="#ffffff" y="-37.499999" height="449.999989" fill-opacity="1"/><rect x="-37.5" width="450" fill="#ffffff" y="-37.499999" height="449.999989" fill-opacity="1"/><rect x="-37.5" width="450" y="-37.499999" height="449.999989"/><path fill="#eee0d8" d="M 187.503906 167.597656 C 186.90625 167.597656 186.3125 167.566406 185.71875 167.507812 C 185.121094 167.449219 184.53125 167.363281 183.945312 167.246094 C 183.359375 167.132812 182.78125 166.984375 182.207031 166.8125 C 181.636719 166.640625 181.074219 166.441406 180.523438 166.210938 C 179.96875 165.984375 179.429688 165.730469 178.902344 165.449219 C 178.375 165.167969 177.863281 164.859375 177.367188 164.527344 C 176.871094 164.199219 176.390625 163.84375 175.929688 163.464844 C 175.46875 163.085938 175.023438 162.6875 174.601562 162.265625 C 174.179688 161.84375 173.777344 161.402344 173.398438 160.941406 C 173.019531 160.480469 172.664062 160.003906 172.332031 159.507812 C 172 159.011719 171.695312 158.5 171.414062 157.972656 C 171.132812 157.449219 170.875 156.910156 170.648438 156.359375 C 170.417969 155.808594 170.21875 155.246094 170.042969 154.675781 C 169.871094 154.105469 169.726562 153.527344 169.609375 152.945312 C 169.492188 152.359375 169.40625 151.769531 169.347656 151.175781 C 169.289062 150.582031 169.257812 149.988281 169.257812 149.390625 C 169.257812 148.796875 169.289062 148.203125 169.347656 147.609375 C 169.40625 147.015625 169.492188 146.425781 169.609375 145.839844 C 169.726562 145.257812 169.871094 144.679688 170.042969 144.109375 C 170.21875 143.539062 170.417969 142.976562 170.648438 142.425781 C 170.875 141.875 171.132812 141.335938 171.414062 140.8125 C 171.695312 140.285156 172 139.773438 172.332031 139.277344 C 172.664062 138.78125 173.019531 138.304688 173.398438 137.84375 C 173.777344 137.382812 174.179688 136.941406 174.601562 136.519531 C 175.023438 136.097656 175.46875 135.699219 175.929688 135.320312 C 176.390625 134.941406 176.871094 134.585938 177.367188 134.253906 C 177.863281 133.925781 178.375 133.617188 178.902344 133.335938 C 179.429688 133.054688 179.96875 132.800781 180.523438 132.574219 C 181.074219 132.34375 181.636719 132.144531 182.207031 131.972656 C 182.78125 131.796875 183.359375 131.652344 183.945312 131.539062 C 184.53125 131.421875 185.121094 131.332031 185.71875 131.273438 C 186.3125 131.214844 186.90625 131.1875 187.503906 131.1875 C 188.101562 131.1875 188.699219 131.214844 189.292969 131.273438 C 189.890625 131.332031 190.480469 131.421875 191.066406 131.539062 C 191.652344 131.652344 192.230469 131.796875 192.804688 131.972656 C 193.375 132.144531 193.9375 132.34375 194.488281 132.574219 C 195.039062 132.800781 195.582031 133.054688 196.109375 133.335938 C 196.632812 133.617188 197.148438 133.925781 197.644531 134.253906 C 198.140625 134.585938 198.621094 134.941406 199.082031 135.320312 C 199.542969 135.699219 199.984375 136.097656 200.410156 136.519531 C 200.832031 136.941406 201.230469 137.382812 201.613281 137.84375 C 201.992188 138.304688 202.347656 138.78125 202.679688 139.277344 C 203.011719 139.773438 203.316406 140.285156 203.597656 140.8125 C 203.878906 141.335938 204.136719 141.875 204.363281 142.425781 C 204.59375 142.976562 204.792969 143.539062 204.96875 144.109375 C 205.140625 144.679688 205.285156 145.257812 205.402344 145.839844 C 205.519531 146.425781 205.605469 147.015625 205.664062 147.609375 C 205.722656 148.203125 205.753906 148.796875 205.753906 149.390625 C 205.753906 149.988281 205.722656 150.582031 205.664062 151.175781 C 205.605469 151.769531 205.515625 152.359375 205.398438 152.941406 C 205.28125 153.527344 205.136719 154.105469 204.964844 154.675781 C 204.789062 155.246094 204.585938 155.804688 204.359375 156.355469 C 204.128906 156.90625 203.875 157.445312 203.59375 157.96875 C 203.3125 158.496094 203.003906 159.003906 202.671875 159.5 C 202.339844 159.996094 201.984375 160.476562 201.605469 160.933594 C 201.226562 161.394531 200.824219 161.835938 200.402344 162.257812 C 199.980469 162.679688 199.539062 163.078125 199.074219 163.457031 C 198.613281 163.835938 198.136719 164.191406 197.636719 164.523438 C 197.140625 164.855469 196.628906 165.160156 196.101562 165.441406 C 195.578125 165.722656 195.039062 165.976562 194.484375 166.207031 C 193.933594 166.433594 193.371094 166.636719 192.800781 166.808594 C 192.230469 166.980469 191.648438 167.125 191.0625 167.242188 C 190.476562 167.359375 189.886719 167.449219 189.292969 167.507812 C 188.699219 167.566406 188.101562 167.597656 187.503906 167.597656 Z M 187.503906 134.21875 C 186.507812 134.21875 185.519531 134.316406 184.542969 134.507812 C 183.566406 134.703125 182.613281 134.992188 181.695312 135.371094 C 180.773438 135.753906 179.898438 136.21875 179.066406 136.773438 C 178.238281 137.324219 177.472656 137.953125 176.765625 138.65625 C 176.0625 139.359375 175.429688 140.125 174.878906 140.953125 C 174.324219 141.78125 173.855469 142.652344 173.472656 143.570312 C 173.09375 144.492188 172.804688 145.4375 172.609375 146.414062 C 172.414062 147.390625 172.316406 148.375 172.316406 149.371094 C 172.316406 150.367188 172.414062 151.351562 172.609375 152.328125 C 172.804688 153.300781 173.09375 154.25 173.472656 155.167969 C 173.855469 156.089844 174.324219 156.960938 174.878906 157.789062 C 175.429688 158.617188 176.0625 159.382812 176.765625 160.085938 C 177.472656 160.789062 178.238281 161.417969 179.066406 161.96875 C 179.898438 162.523438 180.773438 162.988281 181.695312 163.371094 C 182.613281 163.75 183.566406 164.039062 184.542969 164.230469 C 185.519531 164.425781 186.507812 164.523438 187.503906 164.523438 C 188.503906 164.523438 189.492188 164.425781 190.46875 164.230469 C 191.445312 164.039062 192.398438 163.75 193.316406 163.371094 C 194.238281 162.988281 195.113281 162.523438 195.945312 161.96875 C 196.773438 161.417969 197.539062 160.789062 198.246094 160.085938 C 198.949219 159.382812 199.582031 158.617188 200.132812 157.789062 C 200.6875 156.960938 201.15625 156.089844 201.539062 155.167969 C 201.917969 154.25 202.207031 153.300781 202.402344 152.328125 C 202.597656 151.351562 202.695312 150.367188 202.695312 149.371094 C 202.695312 148.375 202.597656 147.390625 202.402344 146.414062 C 202.207031 145.4375 201.917969 144.492188 201.539062 143.570312 C 201.15625 142.652344 200.6875 141.78125 200.132812 140.953125 C 199.582031 140.125 198.949219 139.359375 198.246094 138.65625 C 197.539062 137.953125 196.773438 137.324219 195.945312 136.773438 C 195.113281 136.21875 194.238281 135.753906 193.316406 135.371094 C 192.398438 134.992188 191.445312 134.703125 190.46875 134.507812 C 189.492188 134.316406 188.503906 134.21875 187.503906 134.21875 Z M 187.503906 134.21875 " fill-opacity="1" fill-rule="nonzero"/><g clip-path="url(#09ecf12ab5)"><path fill="#eee0d8" d="M 260.0625 304.316406 C 240.273438 304.316406 220.441406 294.46875 202.800781 285.699219 C 198.464844 283.535156 194.46875 281.566406 190.457031 279.703125 C 171.601562 271.046875 127.53125 250.4375 109.785156 273.859375 C 109.652344 274.019531 109.492188 274.148438 109.304688 274.246094 C 109.121094 274.34375 108.921875 274.402344 108.714844 274.421875 C 108.507812 274.441406 108.304688 274.417969 108.101562 274.355469 C 107.902344 274.296875 107.722656 274.199219 107.5625 274.066406 C 107.402344 273.929688 107.269531 273.773438 107.171875 273.585938 C 107.074219 273.402344 107.015625 273.207031 106.996094 273 C 106.980469 272.789062 107 272.585938 107.0625 272.386719 C 107.125 272.1875 107.222656 272.007812 107.355469 271.847656 C 126.46875 246.476562 172.207031 267.710938 191.738281 276.78125 C 195.792969 278.664062 199.851562 280.679688 204.148438 282.820312 C 222.808594 292.085938 243.941406 302.5625 264.378906 300.941406 C 285.492188 299.25 300.246094 284.511719 300.246094 265.113281 C 300.242188 263.945312 300.183594 262.773438 300.0625 261.609375 C 299.945312 260.445312 299.769531 259.285156 299.539062 258.136719 C 299.308594 256.988281 299.019531 255.855469 298.675781 254.734375 C 298.332031 253.613281 297.933594 252.511719 297.484375 251.433594 C 297.03125 250.351562 296.527344 249.292969 295.972656 248.261719 C 295.417969 247.230469 294.8125 246.226562 294.160156 245.253906 C 293.503906 244.28125 292.804688 243.339844 292.058594 242.4375 C 291.3125 241.53125 290.523438 240.664062 289.695312 239.835938 C 288.863281 239.011719 287.992188 238.226562 287.085938 237.480469 C 286.175781 236.738281 285.234375 236.042969 284.257812 235.390625 C 283.28125 234.742188 282.273438 234.140625 281.238281 233.589844 C 280.203125 233.035156 279.140625 232.535156 278.058594 232.085938 C 276.972656 231.640625 275.867188 231.242188 274.746094 230.902344 C 273.621094 230.5625 272.484375 230.277344 271.332031 230.046875 C 270.179688 229.820312 269.019531 229.648438 267.851562 229.53125 C 266.683594 229.414062 265.511719 229.355469 264.335938 229.355469 C 244.355469 229.355469 188.871094 266.152344 188.394531 266.4375 C 188.226562 266.558594 188.039062 266.640625 187.835938 266.6875 C 187.632812 266.730469 187.425781 266.734375 187.222656 266.695312 C 187.015625 266.65625 186.828125 266.578125 186.652344 266.464844 C 186.480469 266.347656 186.339844 266.199219 186.226562 266.023438 C 186.109375 265.851562 186.03125 265.664062 185.992188 265.460938 C 185.953125 265.257812 185.953125 265.054688 185.992188 264.851562 C 186.03125 264.648438 186.109375 264.460938 186.226562 264.289062 C 186.34375 264.117188 186.488281 263.972656 186.660156 263.859375 C 188.894531 262.386719 243.441406 226.390625 264.335938 226.390625 C 265.617188 226.390625 266.890625 226.453125 268.164062 226.578125 C 269.4375 226.703125 270.703125 226.890625 271.957031 227.136719 C 273.210938 227.386719 274.449219 227.695312 275.675781 228.066406 C 276.898438 228.4375 278.101562 228.867188 279.285156 229.355469 C 280.464844 229.84375 281.621094 230.386719 282.75 230.988281 C 283.875 231.589844 284.972656 232.246094 286.035156 232.957031 C 287.097656 233.664062 288.125 234.425781 289.113281 235.234375 C 290.101562 236.042969 291.050781 236.898438 291.953125 237.800781 C 292.859375 238.703125 293.714844 239.648438 294.527344 240.636719 C 295.339844 241.621094 296.101562 242.644531 296.8125 243.707031 C 297.523438 244.765625 298.179688 245.859375 298.78125 246.984375 C 299.382812 248.109375 299.929688 249.261719 300.421875 250.441406 C 300.910156 251.621094 301.339844 252.820312 301.710938 254.042969 C 302.082031 255.265625 302.394531 256.5 302.644531 257.75 C 302.890625 259.003906 303.078125 260.265625 303.207031 261.535156 C 303.332031 262.804688 303.394531 264.078125 303.394531 265.351562 C 303.394531 286.070312 287.121094 302.414062 264.726562 304.1875 C 263.136719 304.273438 261.582031 304.316406 260.0625 304.316406 Z M 260.0625 304.316406 " fill-opacity="1" fill-rule="nonzero"/></g><g clip-path="url(#c7e8f1ec6c)"><path fill="#eee0d8" d="M 110.78125 304.015625 C 109.503906 304.015625 108.230469 303.953125 106.960938 303.828125 C 105.691406 303.703125 104.429688 303.515625 103.175781 303.269531 C 101.925781 303.019531 100.6875 302.710938 99.464844 302.34375 C 98.242188 301.972656 97.042969 301.546875 95.863281 301.058594 C 94.679688 300.570312 93.527344 300.027344 92.402344 299.429688 C 91.273438 298.828125 90.179688 298.175781 89.117188 297.46875 C 88.054688 296.761719 87.03125 296.007812 86.042969 295.199219 C 85.054688 294.394531 84.109375 293.539062 83.203125 292.640625 C 82.300781 291.742188 81.441406 290.800781 80.628906 289.816406 C 79.820312 288.832031 79.058594 287.8125 78.347656 286.753906 C 77.636719 285.695312 76.976562 284.605469 76.375 283.484375 C 75.769531 282.359375 75.222656 281.210938 74.730469 280.035156 C 74.238281 278.859375 73.808594 277.664062 73.433594 276.445312 C 73.058594 275.226562 72.746094 273.992188 72.496094 272.746094 C 72.242188 271.496094 72.054688 270.238281 71.925781 268.96875 C 71.796875 267.703125 71.730469 266.433594 71.726562 265.160156 C 71.726562 244.421875 87.976562 228.078125 110.390625 226.195312 C 131.65625 224.484375 153.203125 235.179688 172.207031 244.617188 C 176.546875 246.78125 180.539062 248.75 184.554688 250.613281 C 203.410156 259.488281 247.585938 280.007812 265.207031 256.695312 C 265.324219 256.535156 265.472656 256.402344 265.644531 256.300781 C 265.820312 256.199219 266.007812 256.132812 266.207031 256.105469 C 266.40625 256.074219 266.601562 256.085938 266.796875 256.136719 C 266.992188 256.1875 267.171875 256.269531 267.332031 256.390625 C 267.492188 256.511719 267.625 256.660156 267.726562 256.832031 C 267.828125 257.003906 267.894531 257.191406 267.925781 257.390625 C 267.953125 257.589844 267.941406 257.785156 267.890625 257.980469 C 267.839844 258.175781 267.757812 258.351562 267.636719 258.511719 C 248.542969 283.882812 202.800781 262.648438 183.253906 253.578125 C 179.21875 251.695312 175.160156 249.679688 170.84375 247.539062 C 152.203125 238.296875 131.046875 227.796875 110.628906 229.417969 C 89.519531 231 74.765625 245.742188 74.765625 265.160156 C 74.765625 266.332031 74.824219 267.507812 74.941406 268.675781 C 75.058594 269.84375 75.234375 271.003906 75.464844 272.15625 C 75.695312 273.308594 75.984375 274.449219 76.328125 275.574219 C 76.667969 276.695312 77.066406 277.800781 77.519531 278.886719 C 77.972656 279.972656 78.476562 281.03125 79.035156 282.066406 C 79.589844 283.101562 80.195312 284.109375 80.851562 285.085938 C 81.507812 286.0625 82.210938 287.003906 82.957031 287.910156 C 83.707031 288.816406 84.5 289.6875 85.332031 290.515625 C 86.167969 291.347656 87.039062 292.132812 87.953125 292.878906 C 88.863281 293.621094 89.808594 294.320312 90.789062 294.96875 C 91.769531 295.621094 92.78125 296.222656 93.820312 296.777344 C 94.859375 297.328125 95.925781 297.828125 97.015625 298.277344 C 98.101562 298.722656 99.210938 299.117188 100.339844 299.457031 C 101.46875 299.796875 102.609375 300.078125 103.765625 300.304688 C 104.921875 300.535156 106.085938 300.703125 107.257812 300.816406 C 108.429688 300.929688 109.605469 300.984375 110.78125 300.984375 C 130.765625 300.984375 186.246094 264.183594 186.722656 263.882812 C 186.894531 263.761719 187.082031 263.675781 187.289062 263.632812 C 187.492188 263.589844 187.699219 263.589844 187.902344 263.628906 C 188.109375 263.671875 188.296875 263.75 188.46875 263.871094 C 188.640625 263.988281 188.785156 264.136719 188.894531 264.3125 C 189.015625 264.484375 189.101562 264.667969 189.144531 264.871094 C 189.191406 265.078125 189.195312 265.28125 189.15625 265.484375 C 189.117188 265.691406 189.039062 265.878906 188.921875 266.050781 C 188.804688 266.222656 188.65625 266.367188 188.480469 266.480469 C 186.050781 267.949219 131.570312 304.015625 110.78125 304.015625 Z M 110.78125 304.015625 " fill-opacity="1" fill-rule="nonzero"/></g><g clip-path="url(#e4e1ea2368)"><path fill="#eee0d8" d="M 228.449219 242.429688 C 228.25 242.429688 228.058594 242.390625 227.875 242.316406 C 227.6875 242.242188 227.523438 242.132812 227.382812 241.992188 C 227.242188 241.855469 227.128906 241.691406 227.050781 241.507812 C 226.972656 241.324219 226.933594 241.136719 226.929688 240.9375 C 226.605469 222.644531 203.433594 208.464844 182.992188 195.757812 C 179.519531 193.59375 176.15625 191.429688 173.035156 189.523438 C 155.109375 177.316406 145.5 165.128906 143.609375 152.269531 C 140.964844 134.109375 154.027344 118.070312 166.652344 102.484375 C 175.332031 91.660156 183.621094 81.636719 186.007812 71.636719 C 186.058594 71.445312 186.144531 71.265625 186.265625 71.105469 C 186.386719 70.945312 186.535156 70.816406 186.707031 70.710938 C 186.878906 70.609375 187.0625 70.542969 187.261719 70.511719 C 187.460938 70.480469 187.65625 70.488281 187.851562 70.535156 C 188.046875 70.589844 188.21875 70.679688 188.375 70.804688 C 188.53125 70.925781 188.660156 71.078125 188.757812 71.25 C 188.855469 71.425781 188.914062 71.609375 188.9375 71.808594 C 188.964844 72.007812 188.949219 72.203125 188.894531 72.394531 C 186.398438 83.089844 178.046875 93.457031 169.019531 104.453125 C 156.78125 119.453125 144.152344 134.996094 146.605469 151.816406 C 148.363281 163.808594 157.5625 175.324219 174.8125 186.992188 C 177.894531 188.984375 181.320312 191.039062 184.683594 193.183594 C 205.796875 206.171875 229.730469 220.933594 230.078125 240.804688 C 230.078125 241.007812 230.042969 241.199219 229.96875 241.386719 C 229.894531 241.574219 229.789062 241.738281 229.648438 241.882812 C 229.507812 242.027344 229.34375 242.140625 229.160156 242.21875 C 228.972656 242.296875 228.78125 242.339844 228.578125 242.34375 Z M 228.449219 242.429688 " fill-opacity="1" fill-rule="nonzero"/></g><g clip-path="url(#876ab6e05e)"><path fill="#eee0d8" d="M 147.472656 236.304688 L 147.0625 236.304688 C 146.867188 236.25 146.691406 236.15625 146.53125 236.03125 C 146.375 235.90625 146.246094 235.753906 146.148438 235.578125 C 146.050781 235.402344 145.988281 235.210938 145.96875 235.011719 C 145.945312 234.8125 145.960938 234.613281 146.019531 234.421875 C 150.792969 217.664062 171.839844 204.679688 190.414062 193.292969 C 193.863281 191.125 197.226562 189.09375 200.328125 187.078125 C 217.449219 175.433594 226.648438 163.917969 228.382812 151.925781 C 230.859375 135.105469 218.207031 119.5625 205.992188 104.5625 C 197.050781 93.566406 188.632812 83.175781 186.03125 72.503906 C 185.964844 72.296875 185.941406 72.089844 185.964844 71.875 C 185.988281 71.660156 186.050781 71.457031 186.160156 71.269531 C 186.265625 71.082031 186.40625 70.925781 186.582031 70.796875 C 186.753906 70.667969 186.949219 70.582031 187.160156 70.535156 C 187.351562 70.5 187.542969 70.5 187.734375 70.539062 C 187.925781 70.582031 188.101562 70.65625 188.265625 70.765625 C 188.425781 70.875 188.5625 71.011719 188.671875 71.171875 C 188.78125 71.335938 188.855469 71.511719 188.894531 71.703125 C 191.390625 81.703125 199.742188 91.8125 208.421875 102.527344 C 221.050781 118.070312 234.113281 134.109375 231.464844 152.316406 C 229.578125 165.171875 219.964844 177.359375 202.085938 189.546875 C 198.917969 191.582031 195.578125 193.660156 192.082031 195.800781 C 173.988281 206.949219 153.460938 219.613281 149.015625 235.242188 C 148.910156 235.574219 148.714844 235.839844 148.425781 236.039062 C 148.140625 236.234375 147.820312 236.324219 147.472656 236.304688 Z M 147.472656 236.304688 " fill-opacity="1" fill-rule="nonzero"/></g></svg>