<svg xmlns="http://www.w3.org/2000/svg" xmlns:xlink="http://www.w3.org/1999/xlink" width="200" zoomAndPan="magnify" viewBox="0 0 375 374.999991" height="200" preserveAspectRatio="xMidYMid meet" version="1.0"><defs><g/><clipPath id="d18b16489d"><path d="M 5.632812 7.082031 L 369.382812 7.082031 L 369.382812 370.828125 L 5.632812 370.828125 Z M 5.632812 7.082031 " clip-rule="nonzero"/></clipPath><clipPath id="371a62ed1a"><path d="M 217.648438 152.378906 L 313.1875 152.378906 L 313.1875 163.054688 L 217.648438 163.054688 Z M 217.648438 152.378906 " clip-rule="nonzero"/></clipPath><clipPath id="930f0fcb4f"><path d="M 185 37.5 L 187 37.5 L 187 134 L 185 134 Z M 185 37.5 " clip-rule="nonzero"/></clipPath><clipPath id="94b2ce4147"><path d="M 58.289062 152 L 154 152 L 154 164 L 58.289062 164 Z M 58.289062 152 " clip-rule="nonzero"/></clipPath><clipPath id="a644a0df48"><path d="M 152 131 L 220 131 L 220 164.25 L 152 164.25 Z M 152 131 " clip-rule="nonzero"/></clipPath><clipPath id="ada4109ebd"><path d="M 191 239.03125 L 210 239.03125 L 210 333.425781 L 191 333.425781 Z M 191 239.03125 " clip-rule="nonzero"/></clipPath><clipPath id="8570e9ccad"><path d="M 217 210.101562 L 289 210.101562 L 289 219 L 217 219 Z M 217 210.101562 " clip-rule="nonzero"/></clipPath><clipPath id="04a3200111"><path d="M 82 210.101562 L 154 210.101562 L 154 219 L 82 219 Z M 82 210.101562 " clip-rule="nonzero"/></clipPath><clipPath id="5007754f8f"><path d="M 161.199219 239.03125 L 180.527344 239.03125 L 180.527344 333.425781 L 161.199219 333.425781 Z M 161.199219 239.03125 " clip-rule="nonzero"/></clipPath><clipPath id="f708710113"><path d="M 152 210.101562 L 220 210.101562 L 220 242 L 152 242 Z M 152 210.101562 " clip-rule="nonzero"/></clipPath></defs><g clip-path="url(#d18b16489d)"><path fill="#483a58" d="M 325.804688 64.769531 C 318.691406 52.453125 305.792969 45.558594 292.523438 45.550781 L 292.527344 45.546875 C 279.257812 45.535156 266.355469 38.644531 259.242188 26.328125 C 248.632812 7.949219 225.128906 1.652344 206.746094 12.265625 L 206.746094 12.253906 C 195.328125 18.832031 180.839844 19.351562 168.574219 12.398438 C 162.859375 9.03125 156.203125 7.101562 149.097656 7.101562 C 134.871094 7.101562 122.457031 14.828125 115.808594 26.316406 L 115.808594 26.3125 C 109.164062 37.796875 96.746094 45.523438 82.523438 45.523438 C 61.296875 45.523438 44.09375 62.730469 44.09375 83.953125 L 44.09375 83.960938 L 44.082031 83.953125 C 44.070312 97.125 37.285156 109.925781 25.144531 117.070312 C 19.367188 120.335938 14.355469 125.136719 10.796875 131.300781 C 3.6875 143.621094 4.167969 158.234375 10.796875 169.734375 L 10.792969 169.734375 C 17.414062 181.230469 17.898438 195.847656 10.785156 208.164062 C 0.175781 226.546875 6.472656 250.046875 24.851562 260.660156 L 24.855469 260.664062 L 24.847656 260.667969 C 36.335938 267.308594 44.058594 279.730469 44.058594 293.953125 C 44.058594 315.179688 61.261719 332.382812 82.488281 332.382812 C 96.710938 332.382812 109.125 340.109375 115.773438 351.59375 C 122.417969 363.078125 134.839844 370.808594 149.058594 370.808594 C 156.171875 370.808594 162.824219 368.875 168.539062 365.507812 C 180.800781 358.558594 195.292969 359.078125 206.710938 365.65625 L 206.710938 365.644531 L 206.710938 365.648438 C 225.09375 376.257812 248.597656 369.960938 259.210938 351.582031 C 266.320312 339.265625 279.222656 332.371094 292.492188 332.363281 L 292.488281 332.359375 C 305.757812 332.347656 318.660156 325.457031 325.769531 313.140625 C 329.269531 307.078125 330.929688 300.453125 330.921875 293.921875 L 330.929688 293.925781 C 330.941406 281.125 337.355469 268.667969 348.863281 261.421875 C 355.066406 258.15625 360.449219 253.160156 364.214844 246.644531 C 371.328125 234.320312 370.84375 219.703125 364.21875 208.207031 C 357.597656 196.710938 357.113281 182.09375 364.226562 169.773438 C 374.839844 151.394531 368.539062 127.894531 350.160156 117.28125 L 350.15625 117.277344 L 350.164062 117.273438 C 338.769531 110.679688 331.078125 98.40625 330.957031 84.324219 C 331.023438 77.679688 329.363281 70.9375 325.804688 64.769531 " fill-opacity="1" fill-rule="nonzero"/></g><g clip-path="url(#371a62ed1a)"><path fill="#ffffff" d="M 218.742188 163.054688 C 218.351562 163.054688 218.019531 162.757812 217.984375 162.363281 C 217.945312 161.945312 218.253906 161.570312 218.671875 161.535156 L 312.355469 152.855469 C 312.765625 152.816406 313.144531 153.125 313.183594 153.546875 C 313.222656 153.964844 312.914062 154.335938 312.496094 154.375 L 218.8125 163.050781 C 218.789062 163.054688 218.765625 163.054688 218.742188 163.054688 " fill-opacity="1" fill-rule="nonzero"/></g><path fill="#ffffff" d="M 217.628906 157.0625 C 217.296875 157.0625 216.992188 156.84375 216.898438 156.507812 C 216.78125 156.105469 217.015625 155.679688 217.421875 155.566406 L 284.453125 136.5 C 284.855469 136.382812 285.28125 136.617188 285.398438 137.023438 C 285.511719 137.429688 285.277344 137.851562 284.871094 137.96875 L 217.839844 157.03125 C 217.769531 157.054688 217.699219 157.0625 217.628906 157.0625 " fill-opacity="1" fill-rule="nonzero"/><path fill="#ffffff" d="M 215.421875 151.375 C 215.144531 151.375 214.875 151.21875 214.738281 150.949219 C 214.554688 150.574219 214.707031 150.117188 215.082031 149.929688 L 277.46875 118.886719 L 299.300781 108.019531 C 299.675781 107.828125 300.132812 107.984375 300.324219 108.359375 C 300.511719 108.738281 300.359375 109.195312 299.980469 109.382812 L 278.148438 120.25 L 215.761719 151.292969 C 215.652344 151.347656 215.539062 151.375 215.421875 151.375 " fill-opacity="1" fill-rule="nonzero"/><path fill="#ffffff" d="M 212.210938 146.195312 C 211.980469 146.195312 211.75 146.089844 211.597656 145.890625 C 211.347656 145.554688 211.414062 145.078125 211.75 144.824219 L 267.355469 102.851562 C 267.691406 102.597656 268.171875 102.664062 268.425781 103 C 268.675781 103.335938 268.609375 103.8125 268.277344 104.066406 L 212.667969 146.039062 C 212.53125 146.144531 212.371094 146.195312 212.210938 146.195312 " fill-opacity="1" fill-rule="nonzero"/><path fill="#ffffff" d="M 208.097656 141.691406 C 207.917969 141.691406 207.730469 141.625 207.585938 141.492188 C 207.273438 141.207031 207.253906 140.726562 207.535156 140.414062 L 270.917969 70.917969 C 271.203125 70.605469 271.683594 70.585938 271.996094 70.867188 C 272.304688 71.152344 272.328125 71.632812 272.046875 71.945312 L 208.664062 141.441406 C 208.511719 141.605469 208.308594 141.691406 208.097656 141.691406 " fill-opacity="1" fill-rule="nonzero"/><path fill="#ffffff" d="M 203.230469 138.011719 C 203.09375 138.011719 202.957031 137.972656 202.832031 137.894531 C 202.472656 137.675781 202.363281 137.203125 202.585938 136.847656 L 239.273438 77.628906 C 239.496094 77.269531 239.964844 77.160156 240.324219 77.378906 C 240.679688 77.601562 240.792969 78.074219 240.570312 78.429688 L 203.882812 137.648438 C 203.738281 137.882812 203.488281 138.011719 203.230469 138.011719 " fill-opacity="1" fill-rule="nonzero"/><path fill="#ffffff" d="M 197.769531 135.289062 C 197.679688 135.289062 197.585938 135.273438 197.496094 135.238281 C 197.101562 135.085938 196.910156 134.644531 197.058594 134.253906 L 231.046875 46.570312 C 231.199219 46.175781 231.640625 45.980469 232.03125 46.132812 C 232.425781 46.285156 232.621094 46.726562 232.46875 47.117188 L 198.480469 134.804688 C 198.363281 135.105469 198.078125 135.289062 197.769531 135.289062 " fill-opacity="1" fill-rule="nonzero"/><path fill="#ffffff" d="M 191.910156 133.625 C 191.859375 133.625 191.816406 133.621094 191.765625 133.609375 C 191.351562 133.53125 191.082031 133.136719 191.15625 132.722656 L 203.964844 64.257812 C 204.039062 63.839844 204.441406 63.570312 204.851562 63.644531 C 205.265625 63.722656 205.539062 64.121094 205.460938 64.535156 L 192.65625 133 C 192.589844 133.367188 192.269531 133.625 191.910156 133.625 " fill-opacity="1" fill-rule="nonzero"/><g clip-path="url(#930f0fcb4f)"><path fill="#ffffff" d="M 185.828125 133.066406 C 185.410156 133.066406 185.066406 132.722656 185.066406 132.300781 L 185.066406 38.261719 C 185.066406 37.839844 185.410156 37.5 185.828125 37.5 C 186.25 37.5 186.59375 37.839844 186.59375 38.261719 L 186.59375 132.300781 C 186.59375 132.722656 186.25 133.066406 185.828125 133.066406 " fill-opacity="1" fill-rule="nonzero"/></g><path fill="#ffffff" d="M 179.753906 133.625 C 179.390625 133.625 179.070312 133.367188 179.003906 133 L 166.195312 64.535156 C 166.121094 64.121094 166.394531 63.722656 166.804688 63.644531 C 167.222656 63.570312 167.617188 63.839844 167.695312 64.257812 L 180.5 132.722656 C 180.578125 133.136719 180.308594 133.53125 179.894531 133.609375 C 179.847656 133.621094 179.796875 133.625 179.753906 133.625 " fill-opacity="1" fill-rule="nonzero"/><path fill="#ffffff" d="M 173.886719 135.289062 C 173.582031 135.289062 173.292969 135.105469 173.175781 134.804688 L 139.191406 47.117188 C 139.039062 46.726562 139.234375 46.285156 139.625 46.132812 C 140.023438 45.980469 140.460938 46.175781 140.613281 46.570312 L 174.601562 134.253906 C 174.753906 134.644531 174.558594 135.085938 174.164062 135.238281 C 174.074219 135.273438 173.980469 135.289062 173.886719 135.289062 " fill-opacity="1" fill-rule="nonzero"/><path fill="#ffffff" d="M 168.425781 138.011719 C 168.171875 138.011719 167.921875 137.882812 167.777344 137.648438 L 131.09375 78.429688 C 130.871094 78.074219 130.980469 77.601562 131.339844 77.378906 C 131.695312 77.160156 132.167969 77.269531 132.390625 77.628906 L 169.074219 136.847656 C 169.296875 137.203125 169.1875 137.675781 168.828125 137.894531 C 168.703125 137.972656 168.566406 138.011719 168.425781 138.011719 " fill-opacity="1" fill-rule="nonzero"/><path fill="#ffffff" d="M 163.558594 141.691406 C 163.355469 141.691406 163.148438 141.605469 162.996094 141.441406 L 99.617188 71.945312 C 99.332031 71.632812 99.351562 71.152344 99.664062 70.867188 C 99.976562 70.582031 100.460938 70.605469 100.742188 70.917969 L 164.125 140.414062 C 164.410156 140.726562 164.386719 141.207031 164.074219 141.492188 C 163.929688 141.625 163.746094 141.691406 163.558594 141.691406 " fill-opacity="1" fill-rule="nonzero"/><path fill="#ffffff" d="M 159.449219 146.195312 C 159.289062 146.195312 159.128906 146.144531 158.992188 146.039062 L 103.386719 104.066406 C 103.050781 103.8125 102.984375 103.335938 103.238281 103 C 103.492188 102.664062 103.96875 102.597656 104.304688 102.851562 L 159.910156 144.824219 C 160.246094 145.078125 160.316406 145.554688 160.058594 145.890625 C 159.910156 146.089844 159.679688 146.195312 159.449219 146.195312 " fill-opacity="1" fill-rule="nonzero"/><path fill="#ffffff" d="M 156.234375 151.375 C 156.121094 151.375 156.003906 151.347656 155.894531 151.292969 L 71.679688 109.382812 C 71.304688 109.195312 71.148438 108.738281 71.335938 108.359375 C 71.527344 107.984375 71.984375 107.832031 72.359375 108.019531 L 94.191406 118.886719 L 156.578125 149.929688 C 156.957031 150.117188 157.109375 150.574219 156.917969 150.949219 C 156.785156 151.21875 156.515625 151.375 156.234375 151.375 " fill-opacity="1" fill-rule="nonzero"/><path fill="#ffffff" d="M 154.03125 157.0625 C 153.960938 157.0625 153.890625 157.054688 153.820312 157.03125 L 86.789062 137.96875 C 86.382812 137.851562 86.148438 137.429688 86.265625 137.023438 C 86.378906 136.617188 86.800781 136.382812 87.207031 136.5 L 154.238281 155.566406 C 154.644531 155.679688 154.878906 156.105469 154.765625 156.507812 C 154.667969 156.84375 154.363281 157.0625 154.03125 157.0625 " fill-opacity="1" fill-rule="nonzero"/><g clip-path="url(#94b2ce4147)"><path fill="#ffffff" d="M 152.917969 163.054688 C 152.894531 163.054688 152.867188 163.054688 152.84375 163.050781 L 59.164062 154.375 C 58.742188 154.335938 58.4375 153.964844 58.476562 153.546875 C 58.515625 153.128906 58.882812 152.816406 59.304688 152.855469 L 152.984375 161.535156 C 153.40625 161.570312 153.714844 161.945312 153.675781 162.363281 C 153.640625 162.757812 153.304688 163.054688 152.917969 163.054688 " fill-opacity="1" fill-rule="nonzero"/></g><g clip-path="url(#a644a0df48)"><path fill="#ffffff" d="M 185.828125 133.066406 C 183.839844 133.066406 181.839844 133.25 179.890625 133.609375 C 177.925781 133.976562 176 134.523438 174.167969 135.238281 C 172.320312 135.949219 170.527344 136.839844 168.832031 137.894531 C 167.148438 138.9375 165.550781 140.144531 164.074219 141.492188 C 162.601562 142.828125 161.253906 144.308594 160.058594 145.890625 C 158.859375 147.476562 157.800781 149.179688 156.921875 150.949219 C 156.027344 152.730469 155.300781 154.597656 154.765625 156.507812 C 154.214844 158.433594 153.851562 160.402344 153.675781 162.359375 C 153.585938 163.324219 153.535156 164.328125 153.535156 165.34375 C 153.535156 166.359375 153.585938 167.359375 153.675781 168.320312 C 153.851562 170.28125 154.214844 172.253906 154.765625 174.175781 C 155.300781 176.085938 156.027344 177.953125 156.917969 179.734375 C 157.800781 181.507812 158.859375 183.210938 160.058594 184.792969 C 161.253906 186.378906 162.601562 187.859375 164.074219 189.195312 C 165.554688 190.539062 167.152344 191.75 168.828125 192.789062 C 170.527344 193.84375 172.320312 194.738281 174.164062 195.445312 C 176 196.160156 177.925781 196.710938 179.890625 197.074219 C 183.792969 197.800781 187.867188 197.800781 191.765625 197.074219 C 193.734375 196.710938 195.660156 196.160156 197.496094 195.445312 C 199.339844 194.738281 201.132812 193.84375 202.832031 192.789062 C 204.507812 191.75 206.105469 190.539062 207.585938 189.195312 C 209.054688 187.859375 210.40625 186.378906 211.597656 184.796875 C 212.800781 183.210938 213.859375 181.507812 214.738281 179.734375 C 215.632812 177.953125 216.359375 176.085938 216.894531 174.179688 C 217.445312 172.25 217.808594 170.28125 217.984375 168.324219 C 218.078125 167.359375 218.125 166.359375 218.125 165.34375 C 218.125 164.328125 218.078125 163.324219 217.984375 162.367188 L 217.984375 162.359375 C 217.808594 160.402344 217.445312 158.433594 216.898438 156.507812 C 216.355469 154.597656 215.632812 152.730469 214.742188 150.953125 C 213.859375 149.179688 212.800781 147.476562 211.601562 145.890625 C 210.40625 144.308594 209.054688 142.828125 207.585938 141.492188 C 206.109375 140.148438 204.507812 138.9375 202.832031 137.894531 C 201.132812 136.839844 199.339844 135.949219 197.496094 135.242188 C 195.660156 134.523438 193.734375 133.976562 191.765625 133.609375 C 189.820312 133.25 187.820312 133.066406 185.828125 133.066406 Z M 185.828125 199.144531 C 183.746094 199.144531 181.652344 198.953125 179.613281 198.574219 C 177.554688 198.191406 175.535156 197.617188 173.613281 196.867188 C 171.683594 196.125 169.800781 195.191406 168.023438 194.085938 C 166.269531 193 164.59375 191.730469 163.046875 190.320312 C 161.507812 188.921875 160.09375 187.371094 158.84375 185.710938 C 157.585938 184.054688 156.476562 182.273438 155.554688 180.414062 C 154.621094 178.550781 153.859375 176.59375 153.296875 174.59375 C 152.722656 172.578125 152.339844 170.511719 152.15625 168.460938 C 152.058594 167.457031 152.011719 166.40625 152.011719 165.34375 C 152.011719 164.277344 152.058594 163.226562 152.15625 162.21875 C 152.339844 160.171875 152.722656 158.109375 153.296875 156.09375 C 153.859375 154.09375 154.621094 152.132812 155.554688 150.269531 C 156.476562 148.414062 157.585938 146.628906 158.84375 144.972656 C 160.09375 143.3125 161.507812 141.761719 163.046875 140.363281 C 164.589844 138.957031 166.269531 137.6875 168.027344 136.597656 C 169.804688 135.496094 171.683594 134.558594 173.613281 133.816406 C 175.535156 133.070312 177.550781 132.496094 179.613281 132.113281 C 183.695312 131.351562 187.964844 131.351562 192.046875 132.113281 C 194.109375 132.496094 196.125 133.070312 198.050781 133.816406 C 199.976562 134.558594 201.855469 135.496094 203.636719 136.601562 C 205.394531 137.6875 207.066406 138.957031 208.613281 140.367188 C 210.152344 141.761719 211.566406 143.3125 212.820312 144.972656 C 214.074219 146.628906 215.179688 148.414062 216.105469 150.273438 C 217.039062 152.132812 217.800781 154.09375 218.363281 156.09375 C 218.9375 158.109375 219.320312 160.171875 219.503906 162.222656 C 219.601562 163.226562 219.648438 164.277344 219.648438 165.34375 C 219.648438 166.40625 219.601562 167.457031 219.503906 168.464844 C 219.320312 170.511719 218.9375 172.578125 218.363281 174.59375 C 217.800781 176.59375 217.039062 178.550781 216.105469 180.414062 C 215.179688 182.273438 214.074219 184.054688 212.816406 185.714844 C 211.566406 187.371094 210.152344 188.921875 208.613281 190.320312 C 207.066406 191.730469 205.390625 192.996094 203.636719 194.085938 C 201.855469 195.191406 199.976562 196.125 198.046875 196.867188 C 196.125 197.617188 194.109375 198.191406 192.046875 198.574219 C 190.003906 198.953125 187.914062 199.144531 185.828125 199.144531 " fill-opacity="1" fill-rule="nonzero"/></g><path fill="#ffffff" d="M 185.828125 311.210938 C 185.410156 311.210938 185.066406 310.871094 185.066406 310.449219 L 185.066406 240.808594 C 185.066406 240.390625 185.410156 240.046875 185.828125 240.046875 C 186.25 240.046875 186.59375 240.390625 186.59375 240.808594 L 186.59375 310.449219 C 186.59375 310.871094 186.25 311.210938 185.828125 311.210938 " fill-opacity="1" fill-rule="nonzero"/><g clip-path="url(#ada4109ebd)"><path fill="#ffffff" d="M 209.191406 333.445312 C 208.832031 333.445312 208.511719 333.191406 208.441406 332.824219 L 191.15625 240.390625 C 191.082031 239.976562 191.351562 239.578125 191.765625 239.5 C 192.175781 239.425781 192.578125 239.695312 192.65625 240.113281 L 209.941406 332.542969 C 210.019531 332.957031 209.746094 333.355469 209.332031 333.433594 C 209.285156 333.441406 209.238281 333.445312 209.191406 333.445312 " fill-opacity="1" fill-rule="nonzero"/></g><path fill="#ffffff" d="M 222.949219 304.304688 C 222.644531 304.304688 222.355469 304.121094 222.238281 303.816406 L 197.058594 238.859375 C 196.910156 238.46875 197.101562 238.023438 197.496094 237.875 C 197.886719 237.71875 198.328125 237.914062 198.480469 238.308594 L 223.660156 303.265625 C 223.8125 303.660156 223.617188 304.101562 223.226562 304.253906 C 223.136719 304.289062 223.042969 304.304688 222.949219 304.304688 " fill-opacity="1" fill-rule="nonzero"/><path fill="#ffffff" d="M 252.761719 316.574219 C 252.507812 316.574219 252.257812 316.445312 252.113281 316.214844 L 202.585938 236.265625 C 202.363281 235.90625 202.472656 235.4375 202.832031 235.214844 C 203.191406 234.996094 203.660156 235.105469 203.882812 235.464844 L 253.410156 315.414062 C 253.632812 315.769531 253.519531 316.242188 253.164062 316.460938 C 253.039062 316.539062 252.898438 316.574219 252.761719 316.574219 " fill-opacity="1" fill-rule="nonzero"/><path fill="#ffffff" d="M 255.039062 284.414062 C 254.832031 284.414062 254.625 284.328125 254.476562 284.167969 L 207.535156 232.695312 C 207.253906 232.386719 207.273438 231.90625 207.585938 231.621094 C 207.894531 231.335938 208.378906 231.359375 208.664062 231.671875 L 255.601562 283.136719 C 255.886719 283.449219 255.867188 283.933594 255.554688 284.214844 C 255.40625 284.347656 255.222656 284.414062 255.039062 284.414062 " fill-opacity="1" fill-rule="nonzero"/><path fill="#ffffff" d="M 287.285156 285.117188 C 287.125 285.117188 286.964844 285.066406 286.828125 284.960938 L 211.75 228.289062 C 211.414062 228.035156 211.347656 227.554688 211.597656 227.21875 C 211.855469 226.886719 212.335938 226.820312 212.667969 227.070312 L 287.746094 283.746094 C 288.082031 284 288.152344 284.476562 287.898438 284.8125 C 287.746094 285.011719 287.515625 285.117188 287.285156 285.117188 " fill-opacity="1" fill-rule="nonzero"/><path fill="#ffffff" d="M 277.808594 254.304688 C 277.695312 254.304688 277.578125 254.28125 277.46875 254.226562 L 215.082031 223.183594 C 214.707031 222.996094 214.554688 222.539062 214.738281 222.160156 C 214.929688 221.785156 215.386719 221.632812 215.761719 221.816406 L 278.148438 252.859375 C 278.523438 253.046875 278.679688 253.507812 278.492188 253.882812 C 278.355469 254.152344 278.085938 254.304688 277.808594 254.304688 " fill-opacity="1" fill-rule="nonzero"/><path fill="#ffffff" d="M 308.117188 243.3125 C 308.050781 243.3125 307.980469 243.300781 307.910156 243.28125 L 217.421875 217.542969 C 217.015625 217.429688 216.78125 217.007812 216.898438 216.601562 C 217.011719 216.199219 217.433594 215.960938 217.839844 216.078125 L 308.328125 241.816406 C 308.730469 241.929688 308.964844 242.351562 308.851562 242.757812 C 308.753906 243.089844 308.453125 243.3125 308.117188 243.3125 " fill-opacity="1" fill-rule="nonzero"/><g clip-path="url(#8570e9ccad)"><path fill="#ffffff" d="M 288.128906 218.007812 C 288.101562 218.007812 288.078125 218.003906 288.054688 218.003906 L 218.671875 211.578125 C 218.253906 211.539062 217.945312 211.167969 217.984375 210.746094 C 218.023438 210.328125 218.390625 210.015625 218.8125 210.0625 L 288.195312 216.484375 C 288.617188 216.523438 288.925781 216.894531 288.886719 217.3125 C 288.851562 217.710938 288.515625 218.007812 288.128906 218.007812 " fill-opacity="1" fill-rule="nonzero"/></g><g clip-path="url(#04a3200111)"><path fill="#ffffff" d="M 83.53125 218.007812 C 83.144531 218.007812 82.8125 217.710938 82.773438 217.3125 C 82.734375 216.894531 83.042969 216.523438 83.460938 216.484375 L 152.84375 210.0625 C 153.265625 210.015625 153.636719 210.328125 153.675781 210.746094 C 153.714844 211.167969 153.40625 211.539062 152.984375 211.578125 L 83.605469 218.003906 C 83.578125 218.003906 83.554688 218.007812 83.53125 218.007812 " fill-opacity="1" fill-rule="nonzero"/></g><path fill="#ffffff" d="M 63.542969 243.3125 C 63.210938 243.3125 62.902344 243.089844 62.808594 242.757812 C 62.695312 242.351562 62.929688 241.929688 63.332031 241.816406 L 153.820312 216.078125 C 154.226562 215.964844 154.648438 216.199219 154.765625 216.601562 C 154.878906 217.007812 154.644531 217.429688 154.238281 217.542969 L 63.753906 243.28125 C 63.679688 243.300781 63.609375 243.3125 63.542969 243.3125 " fill-opacity="1" fill-rule="nonzero"/><path fill="#ffffff" d="M 93.851562 254.304688 C 93.574219 254.304688 93.300781 254.152344 93.167969 253.882812 C 92.980469 253.507812 93.136719 253.046875 93.511719 252.859375 L 155.894531 221.816406 C 156.273438 221.632812 156.734375 221.785156 156.917969 222.160156 C 157.109375 222.539062 156.957031 222.996094 156.578125 223.183594 L 94.191406 254.226562 C 94.082031 254.28125 93.96875 254.304688 93.851562 254.304688 " fill-opacity="1" fill-rule="nonzero"/><path fill="#ffffff" d="M 84.371094 285.117188 C 84.140625 285.117188 83.914062 285.011719 83.765625 284.8125 C 83.511719 284.476562 83.574219 284 83.914062 283.746094 L 158.992188 227.070312 C 159.328125 226.816406 159.804688 226.886719 160.058594 227.21875 C 160.316406 227.554688 160.246094 228.035156 159.910156 228.289062 L 84.832031 284.960938 C 84.695312 285.066406 84.535156 285.117188 84.371094 285.117188 " fill-opacity="1" fill-rule="nonzero"/><path fill="#ffffff" d="M 116.621094 284.414062 C 116.4375 284.414062 116.253906 284.347656 116.105469 284.214844 C 115.796875 283.933594 115.773438 283.449219 116.054688 283.136719 L 162.996094 231.671875 C 163.28125 231.359375 163.761719 231.335938 164.074219 231.621094 C 164.386719 231.90625 164.410156 232.386719 164.125 232.695312 L 117.183594 284.167969 C 117.035156 284.328125 116.828125 284.414062 116.621094 284.414062 " fill-opacity="1" fill-rule="nonzero"/><path fill="#ffffff" d="M 118.898438 316.574219 C 118.761719 316.574219 118.621094 316.539062 118.496094 316.460938 C 118.136719 316.242188 118.027344 315.769531 118.25 315.414062 L 167.777344 235.464844 C 168 235.105469 168.472656 234.996094 168.828125 235.214844 C 169.1875 235.4375 169.296875 235.90625 169.074219 236.265625 L 119.546875 316.214844 C 119.402344 316.445312 119.152344 316.574219 118.898438 316.574219 " fill-opacity="1" fill-rule="nonzero"/><path fill="#ffffff" d="M 148.710938 304.304688 C 148.617188 304.304688 148.523438 304.289062 148.433594 304.253906 C 148.042969 304.101562 147.847656 303.660156 147.996094 303.265625 L 173.175781 238.308594 C 173.332031 237.914062 173.769531 237.71875 174.164062 237.875 C 174.558594 238.023438 174.753906 238.46875 174.601562 238.859375 L 149.421875 303.816406 C 149.304688 304.121094 149.015625 304.304688 148.710938 304.304688 " fill-opacity="1" fill-rule="nonzero"/><g clip-path="url(#5007754f8f)"><path fill="#ffffff" d="M 162.46875 333.445312 C 162.421875 333.445312 162.375 333.441406 162.328125 333.433594 C 161.914062 333.355469 161.640625 332.957031 161.71875 332.542969 L 179.003906 240.113281 C 179.078125 239.699219 179.480469 239.425781 179.894531 239.5 C 180.308594 239.578125 180.578125 239.976562 180.5 240.390625 L 163.21875 332.824219 C 163.148438 333.191406 162.828125 333.445312 162.46875 333.445312 " fill-opacity="1" fill-rule="nonzero"/></g><g clip-path="url(#f708710113)"><path fill="#ffffff" d="M 185.828125 175.492188 C 183.839844 175.492188 181.839844 175.675781 179.890625 176.035156 C 177.925781 176.402344 176 176.949219 174.167969 177.664062 C 172.320312 178.375 170.527344 179.269531 168.832031 180.320312 C 167.148438 181.363281 165.550781 182.570312 164.074219 183.917969 C 162.601562 185.253906 161.253906 186.734375 160.058594 188.316406 C 158.859375 189.902344 157.800781 191.605469 156.921875 193.378906 C 156.027344 195.15625 155.300781 197.023438 154.765625 198.933594 C 154.214844 200.859375 153.851562 202.828125 153.675781 204.785156 C 153.585938 205.753906 153.535156 206.753906 153.535156 207.769531 C 153.535156 208.785156 153.585938 209.785156 153.675781 210.746094 C 153.851562 212.710938 154.214844 214.679688 154.765625 216.601562 C 155.300781 218.511719 156.027344 220.378906 156.917969 222.160156 C 157.800781 223.933594 158.859375 225.636719 160.058594 227.21875 C 161.253906 228.804688 162.601562 230.285156 164.074219 231.621094 C 165.554688 232.96875 167.152344 234.179688 168.828125 235.214844 C 170.527344 236.269531 172.320312 237.164062 174.164062 237.871094 C 176 238.589844 177.925781 239.136719 179.890625 239.5 C 183.792969 240.226562 187.867188 240.226562 191.765625 239.5 C 193.734375 239.136719 195.660156 238.589844 197.496094 237.875 C 199.339844 237.164062 201.132812 236.269531 202.832031 235.214844 C 204.507812 234.175781 206.105469 232.96875 207.585938 231.621094 C 209.054688 230.285156 210.40625 228.804688 211.597656 227.222656 C 212.800781 225.636719 213.859375 223.933594 214.738281 222.160156 C 215.632812 220.378906 216.359375 218.511719 216.894531 216.605469 C 217.445312 214.675781 217.808594 212.710938 217.984375 210.75 C 218.078125 209.785156 218.125 208.785156 218.125 207.769531 C 218.125 206.753906 218.078125 205.753906 217.984375 204.792969 L 217.984375 204.785156 C 217.808594 202.828125 217.445312 200.863281 216.898438 198.933594 C 216.355469 197.023438 215.632812 195.15625 214.742188 193.378906 C 213.859375 191.605469 212.800781 189.902344 211.601562 188.316406 C 210.40625 186.734375 209.054688 185.253906 207.585938 183.917969 C 206.109375 182.574219 204.507812 181.363281 202.832031 180.320312 C 201.132812 179.269531 199.339844 178.375 197.496094 177.667969 C 195.660156 176.949219 193.734375 176.402344 191.765625 176.035156 C 189.820312 175.675781 187.820312 175.492188 185.828125 175.492188 Z M 185.828125 241.574219 C 183.746094 241.574219 181.652344 241.378906 179.613281 241 C 177.554688 240.617188 175.535156 240.042969 173.613281 239.296875 C 171.683594 238.550781 169.800781 237.617188 168.023438 236.511719 C 166.269531 235.425781 164.59375 234.160156 163.046875 232.75 C 161.507812 231.347656 160.09375 229.796875 158.84375 228.136719 C 157.585938 226.480469 156.476562 224.699219 155.554688 222.839844 C 154.621094 220.976562 153.859375 219.019531 153.296875 217.019531 C 152.722656 215.003906 152.339844 212.941406 152.15625 210.886719 C 152.058594 209.882812 152.011719 208.832031 152.011719 207.769531 C 152.011719 206.707031 152.058594 205.65625 152.15625 204.644531 C 152.339844 202.597656 152.722656 200.535156 153.296875 198.519531 C 153.859375 196.519531 154.621094 194.558594 155.554688 192.695312 C 156.476562 190.84375 157.585938 189.058594 158.84375 187.398438 C 160.09375 185.742188 161.507812 184.191406 163.046875 182.789062 C 164.589844 181.382812 166.269531 180.117188 168.027344 179.023438 C 169.804688 177.921875 171.683594 176.984375 173.613281 176.242188 C 175.535156 175.496094 177.550781 174.921875 179.613281 174.539062 C 183.695312 173.78125 187.964844 173.78125 192.046875 174.539062 C 194.109375 174.921875 196.125 175.496094 198.050781 176.242188 C 199.976562 176.984375 201.855469 177.921875 203.636719 179.027344 C 205.394531 180.117188 207.066406 181.382812 208.613281 182.792969 C 210.152344 184.191406 211.566406 185.742188 212.820312 187.402344 C 214.074219 189.058594 215.179688 190.839844 216.105469 192.699219 C 217.039062 194.558594 217.800781 196.519531 218.363281 198.519531 C 218.9375 200.535156 219.320312 202.597656 219.503906 204.648438 C 219.601562 205.65625 219.648438 206.707031 219.648438 207.769531 C 219.648438 208.832031 219.601562 209.882812 219.503906 210.894531 C 219.320312 212.941406 218.9375 215.003906 218.363281 217.019531 C 217.800781 219.019531 217.039062 220.976562 216.105469 222.84375 C 215.179688 224.699219 214.074219 226.480469 212.816406 228.140625 C 211.566406 229.796875 210.152344 231.347656 208.613281 232.75 C 207.066406 234.160156 205.390625 235.421875 203.636719 236.511719 C 201.855469 237.617188 199.976562 238.550781 198.046875 239.296875 C 196.125 240.042969 194.109375 240.617188 192.046875 241 C 190.003906 241.378906 187.914062 241.574219 185.828125 241.574219 " fill-opacity="1" fill-rule="nonzero"/></g><path stroke-linecap="butt" transform="matrix(0.749897, 0, 0, 0.75, 58.289201, 163.176728)" fill="none" stroke-linejoin="miter" d="M -0.000185322 0.998737 L 340.062342 0.998737 " stroke="#ffffff" stroke-width="2" stroke-opacity="1" stroke-miterlimit="4"/><path stroke-linecap="butt" transform="matrix(0.749897, 0, 0, 0.75, 58.289201, 209.352291)" fill="none" stroke-linejoin="miter" d="M -0.000185322 0.999029 L 340.062342 0.999029 " stroke="#ffffff" stroke-width="2" stroke-opacity="1" stroke-miterlimit="4"/><g fill="#ffffff" fill-opacity="1"><g transform="translate(83.461075, 187.807723)"><g><path d="M 13.15625 -16.917969 L 1.324219 -16.917969 L 1.324219 0 L 4.699219 0 L 4.699219 -9.253906 L 11.519531 -9.253906 L 11.519531 -9.640625 L 4.699219 -9.640625 L 4.699219 -16.53125 C 8.917969 -16.53125 11.035156 -16.167969 13.15625 -14.746094 Z M 13.15625 -16.917969 "/></g></g></g><g fill="#ffffff" fill-opacity="1"><g transform="translate(97.869139, 187.807723)"><g><path d="M 4.699219 0 L 4.699219 -16.917969 L 1.324219 -16.917969 L 1.324219 0 Z M 4.699219 0 "/></g></g></g><g fill="#ffffff" fill-opacity="1"><g transform="translate(103.892576, 187.807723)"><g><path d="M 2.796875 0 C 2.242188 -1.953125 2.167969 -3.832031 2.167969 -5.664062 L 2.144531 -14.867188 L 12.554688 0 L 15.375 0 L 15.375 -11.589844 C 15.375 -13.230469 15.542969 -15.277344 16 -16.917969 L 14.339844 -16.917969 C 14.796875 -15.277344 14.988281 -13.253906 14.988281 -11.589844 L 14.988281 -1.445312 L 4.144531 -16.917969 L 1.785156 -16.917969 L 1.785156 -5.664062 C 1.785156 -3.613281 1.6875 -1.953125 1.15625 0 Z M 2.796875 0 "/></g></g></g><g fill="#ffffff" fill-opacity="1"><g transform="translate(120.782293, 187.807723)"><g><path d="M 7.613281 0 C 11.734375 0 15.878906 -2.507812 15.878906 -8.773438 C 15.878906 -14.289062 12.867188 -16.917969 7.878906 -16.917969 L 1.324219 -16.917969 L 1.324219 0 Z M 4.699219 -16.484375 L 6.84375 -16.484375 C 10.363281 -16.507812 12.507812 -14.433594 12.507812 -8.773438 C 12.507812 -2.144531 9.976562 -0.433594 6.289062 -0.433594 L 4.699219 -0.433594 Z M 4.699219 -16.484375 "/></g></g></g><g fill="#ffffff" fill-opacity="1"><g transform="translate(137.623818, 187.807723)"><g/></g></g><g fill="#ffffff" fill-opacity="1"><g transform="translate(143.165378, 187.807723)"><g><path d="M 11.878906 -16.917969 C 12.144531 -15.132812 12.097656 -13.976562 11.445312 -12.699219 L 8.941406 -7.878906 L 4.21875 -16.917969 L 0.84375 -16.917969 L 5.757812 -7.519531 L 5.757812 0 L 9.132812 0 L 9.132812 -7.519531 L 14.050781 -16.917969 Z M 11.878906 -16.917969 "/></g></g></g><g fill="#ffffff" fill-opacity="1"><g transform="translate(157.693903, 187.807723)"><g><path d="M 9.324219 0.386719 C 14.988281 0.386719 17.6875 -3.566406 17.6875 -8.386719 C 17.6875 -13.757812 14.988281 -17.300781 9.324219 -17.300781 C 3.664062 -17.300781 0.964844 -13.757812 0.964844 -8.386719 C 0.964844 -3.566406 3.664062 0.386719 9.324219 0.386719 Z M 9.324219 0 C 5.710938 0 4.335938 -3.976562 4.335938 -8.386719 C 4.335938 -12.722656 5.398438 -16.917969 9.324219 -16.917969 C 13.085938 -16.917969 14.3125 -12.722656 14.3125 -8.386719 C 14.3125 -3.976562 13.085938 0 9.324219 0 Z M 9.324219 0 "/></g></g></g><g fill="#ffffff" fill-opacity="1"><g transform="translate(176.342462, 187.807723)"><g><path d="M 8.289062 0.363281 C 12.363281 0.363281 15.398438 -1.832031 15.398438 -6.21875 L 15.398438 -16.917969 L 12.023438 -16.917969 L 12.023438 -4.242188 C 12.023438 -1.445312 10.386719 -0.0234375 8.289062 -0.0234375 C 6.167969 -0.0234375 4.480469 -1.445312 4.480469 -4.242188 L 4.480469 -16.917969 L 1.085938 -16.917969 L 1.085938 -6.21875 C 1.085938 -1.832031 4.191406 0.363281 8.289062 0.363281 Z M 8.289062 0.363281 "/></g></g></g><g fill="#ffffff" fill-opacity="1"><g transform="translate(192.798493, 187.807723)"><g><path d="M 11.613281 -6.769531 C 11.300781 -7.375 10.890625 -7.734375 10.121094 -7.976562 C 12.867188 -8.457031 14.195312 -10.722656 14.195312 -12.699219 C 14.195312 -14.890625 12.652344 -16.917969 9.207031 -16.917969 L 1.324219 -16.917969 L 1.324219 0 L 4.699219 0 L 4.699219 -6.625 C 5.519531 -7.324219 6.363281 -7.6875 6.914062 -7.6875 C 7.445312 -7.6875 7.808594 -7.398438 8.074219 -6.890625 L 11.566406 0 L 14.941406 0 Z M 8.242188 -8.363281 C 6.914062 -8.386719 5.640625 -7.734375 4.699219 -7.011719 L 4.699219 -16.53125 L 7.207031 -16.53125 C 9.757812 -16.53125 11.0625 -14.578125 11.0625 -12.265625 C 11.0625 -10.097656 9.878906 -8.289062 8.242188 -8.363281 Z M 8.242188 -8.363281 "/></g></g></g><g fill="#ffffff" fill-opacity="1"><g transform="translate(208.652175, 187.807723)"><g/></g></g><g fill="#ffffff" fill-opacity="1"><g transform="translate(214.193736, 187.807723)"><g><path d="M 13.15625 -16.917969 L 1.324219 -16.917969 L 1.324219 0 L 4.699219 0 L 4.699219 -9.253906 L 11.519531 -9.253906 L 11.519531 -9.640625 L 4.699219 -9.640625 L 4.699219 -16.53125 C 8.917969 -16.53125 11.035156 -16.167969 13.15625 -14.746094 Z M 13.15625 -16.917969 "/></g></g></g><g fill="#ffffff" fill-opacity="1"><g transform="translate(228.601801, 187.807723)"><g><path d="M 12.988281 0 L 12.988281 -2.167969 C 10.480469 -0.820312 8.363281 -0.386719 4.699219 -0.386719 L 4.699219 -16.917969 L 1.324219 -16.917969 L 1.324219 0 Z M 12.988281 0 "/></g></g></g><g fill="#ffffff" fill-opacity="1"><g transform="translate(242.407517, 187.807723)"><g><path d="M 9.324219 0.386719 C 14.988281 0.386719 17.6875 -3.566406 17.6875 -8.386719 C 17.6875 -13.757812 14.988281 -17.300781 9.324219 -17.300781 C 3.664062 -17.300781 0.964844 -13.757812 0.964844 -8.386719 C 0.964844 -3.566406 3.664062 0.386719 9.324219 0.386719 Z M 9.324219 0 C 5.710938 0 4.335938 -3.976562 4.335938 -8.386719 C 4.335938 -12.722656 5.398438 -16.917969 9.324219 -16.917969 C 13.085938 -16.917969 14.3125 -12.722656 14.3125 -8.386719 C 14.3125 -3.976562 13.085938 0 9.324219 0 Z M 9.324219 0 "/></g></g></g><g fill="#ffffff" fill-opacity="1"><g transform="translate(261.056075, 187.807723)"><g><path d="M 24.097656 -16.917969 C 24.410156 -14.410156 24.167969 -11.929688 23.109375 -8.890625 L 20.265625 -0.554688 L 14.652344 -16.917969 L 11.277344 -16.917969 L 13.351562 -10.867188 L 9.808594 -0.554688 L 4.191406 -16.917969 L 0.820312 -16.917969 L 6.625 0 L 10 0 L 13.542969 -10.3125 L 17.085938 0 L 20.457031 0 L 26.265625 -16.917969 Z M 24.097656 -16.917969 "/></g></g></g><g fill="#ffffff" fill-opacity="1"><g transform="translate(115.148573, 201.104605)"><g><path d="M 0.015625 -7.1875 L 1.1875 -7.1875 L 2.75 -3.09375 C 3.101562 -2.15625 3.320312 -1.476562 3.40625 -1.0625 L 3.453125 -1.0625 C 3.503906 -1.28125 3.617188 -1.660156 3.796875 -2.203125 C 3.984375 -2.742188 4.582031 -4.40625 5.59375 -7.1875 L 6.765625 -7.1875 L 3.671875 1 C 3.359375 1.8125 3 2.382812 2.59375 2.71875 C 2.1875 3.0625 1.6875 3.234375 1.09375 3.234375 C 0.757812 3.234375 0.429688 3.191406 0.109375 3.109375 L 0.109375 2.25 C 0.347656 2.300781 0.613281 2.328125 0.90625 2.328125 C 1.65625 2.328125 2.191406 1.90625 2.515625 1.0625 L 2.90625 0.046875 Z M 0.015625 -7.1875 "/></g></g></g><g fill="#ffffff" fill-opacity="1"><g transform="translate(121.915876, 201.104605)"><g><path d="M 7.359375 -3.609375 C 7.359375 -2.429688 7.0625 -1.515625 6.46875 -0.859375 C 5.882812 -0.203125 5.070312 0.125 4.03125 0.125 C 3.382812 0.125 2.8125 -0.0234375 2.3125 -0.328125 C 1.8125 -0.628906 1.425781 -1.0625 1.15625 -1.625 C 0.882812 -2.1875 0.75 -2.847656 0.75 -3.609375 C 0.75 -4.773438 1.039062 -5.6875 1.625 -6.34375 C 2.21875 -7 3.035156 -7.328125 4.078125 -7.328125 C 5.078125 -7.328125 5.875 -6.988281 6.46875 -6.3125 C 7.0625 -5.644531 7.359375 -4.742188 7.359375 -3.609375 Z M 1.890625 -3.609375 C 1.890625 -2.679688 2.070312 -1.976562 2.4375 -1.5 C 2.800781 -1.019531 3.34375 -0.78125 4.0625 -0.78125 C 4.769531 -0.78125 5.304688 -1.019531 5.671875 -1.5 C 6.046875 -1.976562 6.234375 -2.679688 6.234375 -3.609375 C 6.234375 -4.515625 6.046875 -5.203125 5.671875 -5.671875 C 5.304688 -6.148438 4.765625 -6.390625 4.046875 -6.390625 C 3.328125 -6.390625 2.785156 -6.15625 2.421875 -5.6875 C 2.066406 -5.226562 1.890625 -4.535156 1.890625 -3.609375 Z M 1.890625 -3.609375 "/></g></g></g><g fill="#ffffff" fill-opacity="1"><g transform="translate(130.027459, 201.104605)"><g><path d="M 7.046875 -7.1875 L 7.046875 -6.5 L 5.703125 -6.34375 C 5.828125 -6.1875 5.9375 -5.984375 6.03125 -5.734375 C 6.132812 -5.492188 6.1875 -5.21875 6.1875 -4.90625 C 6.1875 -4.195312 5.941406 -3.632812 5.453125 -3.21875 C 4.972656 -2.800781 4.316406 -2.59375 3.484375 -2.59375 C 3.265625 -2.59375 3.0625 -2.609375 2.875 -2.640625 C 2.40625 -2.398438 2.171875 -2.09375 2.171875 -1.71875 C 2.171875 -1.519531 2.25 -1.375 2.40625 -1.28125 C 2.570312 -1.1875 2.851562 -1.140625 3.25 -1.140625 L 4.53125 -1.140625 C 5.300781 -1.140625 5.894531 -0.972656 6.3125 -0.640625 C 6.738281 -0.316406 6.953125 0.15625 6.953125 0.78125 C 6.953125 1.570312 6.628906 2.175781 5.984375 2.59375 C 5.347656 3.019531 4.421875 3.234375 3.203125 3.234375 C 2.253906 3.234375 1.523438 3.054688 1.015625 2.703125 C 0.503906 2.347656 0.25 1.851562 0.25 1.21875 C 0.25 0.78125 0.390625 0.398438 0.671875 0.078125 C 0.953125 -0.234375 1.347656 -0.445312 1.859375 -0.5625 C 1.671875 -0.644531 1.515625 -0.773438 1.390625 -0.953125 C 1.265625 -1.128906 1.203125 -1.332031 1.203125 -1.5625 C 1.203125 -1.820312 1.269531 -2.050781 1.40625 -2.25 C 1.550781 -2.445312 1.773438 -2.640625 2.078125 -2.828125 C 1.703125 -2.972656 1.394531 -3.226562 1.15625 -3.59375 C 0.925781 -3.96875 0.8125 -4.390625 0.8125 -4.859375 C 0.8125 -5.648438 1.046875 -6.257812 1.515625 -6.6875 C 1.992188 -7.113281 2.664062 -7.328125 3.53125 -7.328125 C 3.90625 -7.328125 4.242188 -7.28125 4.546875 -7.1875 Z M 1.3125 1.203125 C 1.3125 1.597656 1.472656 1.894531 1.796875 2.09375 C 2.128906 2.289062 2.597656 2.390625 3.203125 2.390625 C 4.117188 2.390625 4.796875 2.253906 5.234375 1.984375 C 5.679688 1.710938 5.90625 1.34375 5.90625 0.875 C 5.90625 0.476562 5.78125 0.207031 5.53125 0.0625 C 5.289062 -0.0820312 4.835938 -0.15625 4.171875 -0.15625 L 2.875 -0.15625 C 2.375 -0.15625 1.988281 -0.0390625 1.71875 0.1875 C 1.445312 0.425781 1.3125 0.765625 1.3125 1.203125 Z M 1.890625 -4.890625 C 1.890625 -4.390625 2.03125 -4.007812 2.3125 -3.75 C 2.601562 -3.488281 3.003906 -3.359375 3.515625 -3.359375 C 4.578125 -3.359375 5.109375 -3.875 5.109375 -4.90625 C 5.109375 -5.988281 4.566406 -6.53125 3.484375 -6.53125 C 2.972656 -6.53125 2.578125 -6.390625 2.296875 -6.109375 C 2.023438 -5.835938 1.890625 -5.429688 1.890625 -4.890625 Z M 1.890625 -4.890625 "/></g></g></g><g fill="#ffffff" fill-opacity="1"><g transform="translate(137.384934, 201.104605)"><g><path d="M 5.578125 0 L 5.359375 -1.03125 L 5.3125 -1.03125 C 4.945312 -0.570312 4.585938 -0.265625 4.234375 -0.109375 C 3.878906 0.046875 3.4375 0.125 2.90625 0.125 C 2.1875 0.125 1.625 -0.0546875 1.21875 -0.421875 C 0.8125 -0.785156 0.609375 -1.304688 0.609375 -1.984375 C 0.609375 -3.441406 1.769531 -4.203125 4.09375 -4.265625 L 5.328125 -4.3125 L 5.328125 -4.75 C 5.328125 -5.320312 5.203125 -5.738281 4.953125 -6 C 4.710938 -6.269531 4.328125 -6.40625 3.796875 -6.40625 C 3.191406 -6.40625 2.515625 -6.222656 1.765625 -5.859375 L 1.421875 -6.6875 C 1.773438 -6.882812 2.160156 -7.035156 2.578125 -7.140625 C 3.003906 -7.253906 3.429688 -7.3125 3.859375 -7.3125 C 4.710938 -7.3125 5.347656 -7.117188 5.765625 -6.734375 C 6.179688 -6.359375 6.390625 -5.75 6.390625 -4.90625 L 6.390625 0 Z M 3.109375 -0.765625 C 3.796875 -0.765625 4.332031 -0.953125 4.71875 -1.328125 C 5.101562 -1.703125 5.296875 -2.222656 5.296875 -2.890625 L 5.296875 -3.53125 L 4.203125 -3.484375 C 3.335938 -3.453125 2.710938 -3.316406 2.328125 -3.078125 C 1.953125 -2.847656 1.765625 -2.476562 1.765625 -1.96875 C 1.765625 -1.582031 1.878906 -1.285156 2.109375 -1.078125 C 2.347656 -0.867188 2.679688 -0.765625 3.109375 -0.765625 Z M 3.109375 -0.765625 "/></g></g></g><g fill="#ffffff" fill-opacity="1"><g transform="translate(144.853885, 201.104605)"><g/></g></g><g fill="#ffffff" fill-opacity="1"><g transform="translate(148.342456, 201.104605)"><g><path d="M 5.796875 -1.96875 C 5.796875 -1.289062 5.546875 -0.769531 5.046875 -0.40625 C 4.546875 -0.0507812 3.847656 0.125 2.953125 0.125 C 1.992188 0.125 1.25 -0.0234375 0.71875 -0.328125 L 0.71875 -1.328125 C 1.0625 -1.148438 1.429688 -1.007812 1.828125 -0.90625 C 2.222656 -0.8125 2.601562 -0.765625 2.96875 -0.765625 C 3.539062 -0.765625 3.976562 -0.851562 4.28125 -1.03125 C 4.59375 -1.21875 4.75 -1.5 4.75 -1.875 C 4.75 -2.15625 4.625 -2.394531 4.375 -2.59375 C 4.132812 -2.789062 3.660156 -3.023438 2.953125 -3.296875 C 2.285156 -3.546875 1.8125 -3.757812 1.53125 -3.9375 C 1.25 -4.125 1.039062 -4.335938 0.90625 -4.578125 C 0.769531 -4.816406 0.703125 -5.097656 0.703125 -5.421875 C 0.703125 -6.015625 0.9375 -6.476562 1.40625 -6.8125 C 1.882812 -7.15625 2.539062 -7.328125 3.375 -7.328125 C 4.144531 -7.328125 4.898438 -7.164062 5.640625 -6.84375 L 5.25 -5.96875 C 4.53125 -6.257812 3.878906 -6.40625 3.296875 -6.40625 C 2.773438 -6.40625 2.382812 -6.320312 2.125 -6.15625 C 1.863281 -6 1.734375 -5.78125 1.734375 -5.5 C 1.734375 -5.300781 1.78125 -5.132812 1.875 -5 C 1.976562 -4.863281 2.140625 -4.734375 2.359375 -4.609375 C 2.578125 -4.492188 2.992188 -4.320312 3.609375 -4.09375 C 4.460938 -3.78125 5.039062 -3.460938 5.34375 -3.140625 C 5.644531 -2.828125 5.796875 -2.4375 5.796875 -1.96875 Z M 5.796875 -1.96875 "/></g></g></g><g fill="#ffffff" fill-opacity="1"><g transform="translate(154.749099, 201.104605)"><g><path d="M 4.1875 0.125 C 3.125 0.125 2.285156 -0.195312 1.671875 -0.84375 C 1.054688 -1.488281 0.75 -2.382812 0.75 -3.53125 C 0.75 -4.695312 1.035156 -5.617188 1.609375 -6.296875 C 2.179688 -6.984375 2.945312 -7.328125 3.90625 -7.328125 C 4.8125 -7.328125 5.523438 -7.03125 6.046875 -6.4375 C 6.578125 -5.84375 6.84375 -5.0625 6.84375 -4.09375 L 6.84375 -3.40625 L 1.890625 -3.40625 C 1.910156 -2.550781 2.117188 -1.90625 2.515625 -1.46875 C 2.921875 -1.03125 3.492188 -0.8125 4.234375 -0.8125 C 5.003906 -0.8125 5.769531 -0.976562 6.53125 -1.3125 L 6.53125 -0.328125 C 6.144531 -0.160156 5.78125 -0.046875 5.4375 0.015625 C 5.09375 0.0859375 4.675781 0.125 4.1875 0.125 Z M 3.890625 -6.40625 C 3.316406 -6.40625 2.859375 -6.21875 2.515625 -5.84375 C 2.171875 -5.46875 1.96875 -4.945312 1.90625 -4.28125 L 5.671875 -4.28125 C 5.671875 -4.96875 5.515625 -5.492188 5.203125 -5.859375 C 4.898438 -6.222656 4.460938 -6.40625 3.890625 -6.40625 Z M 3.890625 -6.40625 "/></g></g></g><g fill="#ffffff" fill-opacity="1"><g transform="translate(162.283625, 201.104605)"><g><path d="M 3.875 -0.78125 C 4.59375 -0.78125 5.117188 -0.972656 5.453125 -1.359375 C 5.785156 -1.753906 5.960938 -2.410156 5.984375 -3.328125 L 5.984375 -3.578125 C 5.984375 -4.578125 5.8125 -5.296875 5.46875 -5.734375 C 5.132812 -6.179688 4.597656 -6.40625 3.859375 -6.40625 C 3.222656 -6.40625 2.734375 -6.15625 2.390625 -5.65625 C 2.054688 -5.164062 1.890625 -4.46875 1.890625 -3.5625 C 1.890625 -2.65625 2.054688 -1.960938 2.390625 -1.484375 C 2.722656 -1.015625 3.21875 -0.78125 3.875 -0.78125 Z M 3.703125 0.125 C 2.773438 0.125 2.050781 -0.195312 1.53125 -0.84375 C 1.007812 -1.5 0.75 -2.410156 0.75 -3.578125 C 0.75 -4.753906 1.007812 -5.671875 1.53125 -6.328125 C 2.0625 -6.992188 2.796875 -7.328125 3.734375 -7.328125 C 4.710938 -7.328125 5.46875 -6.953125 6 -6.203125 L 6.0625 -6.203125 L 6.21875 -7.1875 L 7.078125 -7.1875 L 7.078125 3.234375 L 5.984375 3.234375 L 5.984375 0.15625 C 5.984375 -0.28125 6.007812 -0.65625 6.0625 -0.96875 L 5.984375 -0.96875 C 5.472656 -0.238281 4.710938 0.125 3.703125 0.125 Z M 3.703125 0.125 "/></g></g></g><g fill="#ffffff" fill-opacity="1"><g transform="translate(170.513243, 201.104605)"><g><path d="M 2.171875 -7.1875 L 2.171875 -2.53125 C 2.171875 -1.9375 2.304688 -1.492188 2.578125 -1.203125 C 2.847656 -0.921875 3.265625 -0.78125 3.828125 -0.78125 C 4.578125 -0.78125 5.125 -0.984375 5.46875 -1.390625 C 5.820312 -1.804688 6 -2.476562 6 -3.40625 L 6 -7.1875 L 7.09375 -7.1875 L 7.09375 0 L 6.1875 0 L 6.03125 -0.96875 L 5.984375 -0.96875 C 5.753906 -0.613281 5.441406 -0.34375 5.046875 -0.15625 C 4.648438 0.03125 4.195312 0.125 3.6875 0.125 C 2.8125 0.125 2.15625 -0.078125 1.71875 -0.484375 C 1.289062 -0.898438 1.078125 -1.566406 1.078125 -2.484375 L 1.078125 -7.1875 Z M 2.171875 -7.1875 "/></g></g></g><g fill="#ffffff" fill-opacity="1"><g transform="translate(178.755975, 201.104605)"><g><path d="M 4.1875 0.125 C 3.125 0.125 2.285156 -0.195312 1.671875 -0.84375 C 1.054688 -1.488281 0.75 -2.382812 0.75 -3.53125 C 0.75 -4.695312 1.035156 -5.617188 1.609375 -6.296875 C 2.179688 -6.984375 2.945312 -7.328125 3.90625 -7.328125 C 4.8125 -7.328125 5.523438 -7.03125 6.046875 -6.4375 C 6.578125 -5.84375 6.84375 -5.0625 6.84375 -4.09375 L 6.84375 -3.40625 L 1.890625 -3.40625 C 1.910156 -2.550781 2.117188 -1.90625 2.515625 -1.46875 C 2.921875 -1.03125 3.492188 -0.8125 4.234375 -0.8125 C 5.003906 -0.8125 5.769531 -0.976562 6.53125 -1.3125 L 6.53125 -0.328125 C 6.144531 -0.160156 5.78125 -0.046875 5.4375 0.015625 C 5.09375 0.0859375 4.675781 0.125 4.1875 0.125 Z M 3.890625 -6.40625 C 3.316406 -6.40625 2.859375 -6.21875 2.515625 -5.84375 C 2.171875 -5.46875 1.96875 -4.945312 1.90625 -4.28125 L 5.671875 -4.28125 C 5.671875 -4.96875 5.515625 -5.492188 5.203125 -5.859375 C 4.898438 -6.222656 4.460938 -6.40625 3.890625 -6.40625 Z M 3.890625 -6.40625 "/></g></g></g><g fill="#ffffff" fill-opacity="1"><g transform="translate(186.290502, 201.104605)"><g><path d="M 6.078125 0 L 6.078125 -4.65625 C 6.078125 -5.238281 5.941406 -5.671875 5.671875 -5.953125 C 5.410156 -6.242188 4.992188 -6.390625 4.421875 -6.390625 C 3.671875 -6.390625 3.117188 -6.1875 2.765625 -5.78125 C 2.421875 -5.375 2.25 -4.703125 2.25 -3.765625 L 2.25 0 L 1.15625 0 L 1.15625 -7.1875 L 2.046875 -7.1875 L 2.21875 -6.203125 L 2.265625 -6.203125 C 2.492188 -6.554688 2.804688 -6.832031 3.203125 -7.03125 C 3.609375 -7.226562 4.054688 -7.328125 4.546875 -7.328125 C 5.421875 -7.328125 6.078125 -7.113281 6.515625 -6.6875 C 6.953125 -6.269531 7.171875 -5.601562 7.171875 -4.6875 L 7.171875 0 Z M 6.078125 0 "/></g></g></g><g fill="#ffffff" fill-opacity="1"><g transform="translate(194.533234, 201.104605)"><g><path d="M 4.03125 0.125 C 2.988281 0.125 2.179688 -0.191406 1.609375 -0.828125 C 1.035156 -1.472656 0.75 -2.378906 0.75 -3.546875 C 0.75 -4.753906 1.039062 -5.6875 1.625 -6.34375 C 2.207031 -7 3.03125 -7.328125 4.09375 -7.328125 C 4.445312 -7.328125 4.796875 -7.285156 5.140625 -7.203125 C 5.484375 -7.128906 5.753906 -7.046875 5.953125 -6.953125 L 5.609375 -6.015625 C 5.367188 -6.117188 5.109375 -6.203125 4.828125 -6.265625 C 4.546875 -6.328125 4.296875 -6.359375 4.078125 -6.359375 C 2.617188 -6.359375 1.890625 -5.425781 1.890625 -3.5625 C 1.890625 -2.675781 2.066406 -1.992188 2.421875 -1.515625 C 2.773438 -1.046875 3.300781 -0.8125 4 -0.8125 C 4.601562 -0.8125 5.21875 -0.941406 5.84375 -1.203125 L 5.84375 -0.25 C 5.363281 0 4.757812 0.125 4.03125 0.125 Z M 4.03125 0.125 "/></g></g></g><g fill="#ffffff" fill-opacity="1"><g transform="translate(200.926762, 201.104605)"><g><path d="M 4.1875 0.125 C 3.125 0.125 2.285156 -0.195312 1.671875 -0.84375 C 1.054688 -1.488281 0.75 -2.382812 0.75 -3.53125 C 0.75 -4.695312 1.035156 -5.617188 1.609375 -6.296875 C 2.179688 -6.984375 2.945312 -7.328125 3.90625 -7.328125 C 4.8125 -7.328125 5.523438 -7.03125 6.046875 -6.4375 C 6.578125 -5.84375 6.84375 -5.0625 6.84375 -4.09375 L 6.84375 -3.40625 L 1.890625 -3.40625 C 1.910156 -2.550781 2.117188 -1.90625 2.515625 -1.46875 C 2.921875 -1.03125 3.492188 -0.8125 4.234375 -0.8125 C 5.003906 -0.8125 5.769531 -0.976562 6.53125 -1.3125 L 6.53125 -0.328125 C 6.144531 -0.160156 5.78125 -0.046875 5.4375 0.015625 C 5.09375 0.0859375 4.675781 0.125 4.1875 0.125 Z M 3.890625 -6.40625 C 3.316406 -6.40625 2.859375 -6.21875 2.515625 -5.84375 C 2.171875 -5.46875 1.96875 -4.945312 1.90625 -4.28125 L 5.671875 -4.28125 C 5.671875 -4.96875 5.515625 -5.492188 5.203125 -5.859375 C 4.898438 -6.222656 4.460938 -6.40625 3.890625 -6.40625 Z M 3.890625 -6.40625 "/></g></g></g><g fill="#ffffff" fill-opacity="1"><g transform="translate(208.461288, 201.104605)"><g/></g></g><g fill="#ffffff" fill-opacity="1"><g transform="translate(211.949859, 201.104605)"><g><path d="M 4.5 -7.3125 C 5.445312 -7.3125 6.179688 -6.988281 6.703125 -6.34375 C 7.222656 -5.695312 7.484375 -4.785156 7.484375 -3.609375 C 7.484375 -2.421875 7.21875 -1.5 6.6875 -0.84375 C 6.164062 -0.195312 5.4375 0.125 4.5 0.125 C 4.03125 0.125 3.601562 0.0390625 3.21875 -0.125 C 2.832031 -0.300781 2.507812 -0.566406 2.25 -0.921875 L 2.171875 -0.921875 L 1.9375 0 L 1.15625 0 L 1.15625 -10.203125 L 2.25 -10.203125 L 2.25 -7.734375 C 2.25 -7.171875 2.226562 -6.671875 2.1875 -6.234375 L 2.25 -6.234375 C 2.75 -6.953125 3.5 -7.3125 4.5 -7.3125 Z M 4.34375 -6.390625 C 3.601562 -6.390625 3.066406 -6.175781 2.734375 -5.75 C 2.410156 -5.332031 2.25 -4.617188 2.25 -3.609375 C 2.25 -2.597656 2.414062 -1.875 2.75 -1.4375 C 3.082031 -1 3.625 -0.78125 4.375 -0.78125 C 5.039062 -0.78125 5.535156 -1.023438 5.859375 -1.515625 C 6.191406 -2.003906 6.359375 -2.703125 6.359375 -3.609375 C 6.359375 -4.546875 6.191406 -5.242188 5.859375 -5.703125 C 5.535156 -6.160156 5.03125 -6.390625 4.34375 -6.390625 Z M 4.34375 -6.390625 "/></g></g></g><g fill="#ffffff" fill-opacity="1"><g transform="translate(220.179476, 201.104605)"><g><path d="M 2.171875 -7.1875 L 2.171875 -2.53125 C 2.171875 -1.9375 2.304688 -1.492188 2.578125 -1.203125 C 2.847656 -0.921875 3.265625 -0.78125 3.828125 -0.78125 C 4.578125 -0.78125 5.125 -0.984375 5.46875 -1.390625 C 5.820312 -1.804688 6 -2.476562 6 -3.40625 L 6 -7.1875 L 7.09375 -7.1875 L 7.09375 0 L 6.1875 0 L 6.03125 -0.96875 L 5.984375 -0.96875 C 5.753906 -0.613281 5.441406 -0.34375 5.046875 -0.15625 C 4.648438 0.03125 4.195312 0.125 3.6875 0.125 C 2.8125 0.125 2.15625 -0.078125 1.71875 -0.484375 C 1.289062 -0.898438 1.078125 -1.566406 1.078125 -2.484375 L 1.078125 -7.1875 Z M 2.171875 -7.1875 "/></g></g></g><g fill="#ffffff" fill-opacity="1"><g transform="translate(228.422209, 201.104605)"><g><path d="M 2.25 0 L 1.15625 0 L 1.15625 -7.1875 L 2.25 -7.1875 Z M 1.0625 -9.140625 C 1.0625 -9.390625 1.125 -9.570312 1.25 -9.6875 C 1.375 -9.800781 1.523438 -9.859375 1.703125 -9.859375 C 1.878906 -9.859375 2.03125 -9.796875 2.15625 -9.671875 C 2.28125 -9.554688 2.34375 -9.378906 2.34375 -9.140625 C 2.34375 -8.890625 2.28125 -8.703125 2.15625 -8.578125 C 2.03125 -8.460938 1.878906 -8.40625 1.703125 -8.40625 C 1.523438 -8.40625 1.375 -8.460938 1.25 -8.578125 C 1.125 -8.703125 1.0625 -8.890625 1.0625 -9.140625 Z M 1.0625 -9.140625 "/></g></g></g><g fill="#ffffff" fill-opacity="1"><g transform="translate(231.818975, 201.104605)"><g><path d="M 2.25 0 L 1.15625 0 L 1.15625 -10.203125 L 2.25 -10.203125 Z M 2.25 0 "/></g></g></g><g fill="#ffffff" fill-opacity="1"><g transform="translate(235.215742, 201.104605)"><g><path d="M 6.046875 -0.96875 L 5.984375 -0.96875 C 5.484375 -0.238281 4.734375 0.125 3.734375 0.125 C 2.796875 0.125 2.0625 -0.191406 1.53125 -0.828125 C 1.007812 -1.472656 0.75 -2.390625 0.75 -3.578125 C 0.75 -4.765625 1.007812 -5.6875 1.53125 -6.34375 C 2.0625 -7 2.796875 -7.328125 3.734375 -7.328125 C 4.710938 -7.328125 5.460938 -6.972656 5.984375 -6.265625 L 6.0625 -6.265625 L 6.015625 -6.78125 L 5.984375 -7.28125 L 5.984375 -10.203125 L 7.078125 -10.203125 L 7.078125 0 L 6.1875 0 Z M 3.875 -0.78125 C 4.613281 -0.78125 5.148438 -0.984375 5.484375 -1.390625 C 5.816406 -1.796875 5.984375 -2.445312 5.984375 -3.34375 L 5.984375 -3.578125 C 5.984375 -4.597656 5.8125 -5.320312 5.46875 -5.75 C 5.132812 -6.1875 4.597656 -6.40625 3.859375 -6.40625 C 3.222656 -6.40625 2.734375 -6.15625 2.390625 -5.65625 C 2.054688 -5.164062 1.890625 -4.46875 1.890625 -3.5625 C 1.890625 -2.644531 2.054688 -1.953125 2.390625 -1.484375 C 2.722656 -1.015625 3.21875 -0.78125 3.875 -0.78125 Z M 3.875 -0.78125 "/></g></g></g><g fill="#ffffff" fill-opacity="1"><g transform="translate(243.445359, 201.104605)"><g><path d="M 4.1875 0.125 C 3.125 0.125 2.285156 -0.195312 1.671875 -0.84375 C 1.054688 -1.488281 0.75 -2.382812 0.75 -3.53125 C 0.75 -4.695312 1.035156 -5.617188 1.609375 -6.296875 C 2.179688 -6.984375 2.945312 -7.328125 3.90625 -7.328125 C 4.8125 -7.328125 5.523438 -7.03125 6.046875 -6.4375 C 6.578125 -5.84375 6.84375 -5.0625 6.84375 -4.09375 L 6.84375 -3.40625 L 1.890625 -3.40625 C 1.910156 -2.550781 2.117188 -1.90625 2.515625 -1.46875 C 2.921875 -1.03125 3.492188 -0.8125 4.234375 -0.8125 C 5.003906 -0.8125 5.769531 -0.976562 6.53125 -1.3125 L 6.53125 -0.328125 C 6.144531 -0.160156 5.78125 -0.046875 5.4375 0.015625 C 5.09375 0.0859375 4.675781 0.125 4.1875 0.125 Z M 3.890625 -6.40625 C 3.316406 -6.40625 2.859375 -6.21875 2.515625 -5.84375 C 2.171875 -5.46875 1.96875 -4.945312 1.90625 -4.28125 L 5.671875 -4.28125 C 5.671875 -4.96875 5.515625 -5.492188 5.203125 -5.859375 C 4.898438 -6.222656 4.460938 -6.40625 3.890625 -6.40625 Z M 3.890625 -6.40625 "/></g></g></g><g fill="#ffffff" fill-opacity="1"><g transform="translate(250.979886, 201.104605)"><g><path d="M 4.4375 -7.328125 C 4.757812 -7.328125 5.046875 -7.300781 5.296875 -7.25 L 5.140625 -6.234375 C 4.847656 -6.296875 4.585938 -6.328125 4.359375 -6.328125 C 3.773438 -6.328125 3.273438 -6.09375 2.859375 -5.625 C 2.453125 -5.15625 2.25 -4.566406 2.25 -3.859375 L 2.25 0 L 1.15625 0 L 1.15625 -7.1875 L 2.046875 -7.1875 L 2.171875 -5.859375 L 2.234375 -5.859375 C 2.492188 -6.328125 2.8125 -6.6875 3.1875 -6.9375 C 3.570312 -7.195312 3.988281 -7.328125 4.4375 -7.328125 Z M 4.4375 -7.328125 "/></g></g></g></svg>